<?xml version="1.0" encoding="UTF-8"?>
<svg version="1.1" xmlns="http://www.w3.org/2000/svg" width="1800" height="3200">
<path d="M0 0 C594 0 1188 0 1800 0 C1800 1056 1800 2112 1800 3200 C1206 3200 612 3200 0 3200 C0 2144 0 1088 0 0 Z " fill="#151515" transform="translate(0,0)"/>
<path d="M0 0 C0 0.66 0 1.32 0 2 C0.70125 2.24621094 1.4025 2.49242188 2.125 2.74609375 C14.66907363 8.21708239 23.85456336 19.6874487 31 31 C31.33 31.99 31.66 32.98 32 34 C32.66 34 33.32 34 34 34 C34.26554687 34.54269531 34.53109375 35.08539062 34.8046875 35.64453125 C35.33449219 36.71767578 35.33449219 36.71767578 35.875 37.8125 C36.22304687 38.52019531 36.57109375 39.22789062 36.9296875 39.95703125 C38.0656486 42.21246418 38.0656486 42.21246418 40 45 C40 45.99 40 46.98 40 48 C40.66 48 41.32 48 42 48 C42.33 49.65 42.66 51.3 43 53 C43.66 53 44.32 53 45 53 C45.66 55.31 46.32 57.62 47 60 C47.66 60 48.32 60 49 60 C50.23921302 62.97411124 51.30058404 65.85262818 52 69 C52.66 69 53.32 69 54 69 C55.5078125 71.1171875 55.5078125 71.1171875 57.125 73.875 C57.66382813 74.77992188 58.20265625 75.68484375 58.7578125 76.6171875 C60 79 60 79 60 81 C60.66 81 61.32 81 62 81 C62 81.99 62 82.98 62 84 C62.66 84 63.32 84 64 84 C64 84.66 64 85.32 64 86 C64.66 86 65.32 86 66 86 C66.433125 86.7425 66.86625 87.485 67.3125 88.25 C69.18463736 91.30089051 71.1550206 92.86626545 74 95 C75.8125 96.625 75.8125 96.625 77 98 C77 98.66 77 99.32 77 100 C77.99 100 78.98 100 80 100 C80 100.66 80 101.32 80 102 C83.57847037 103.45232253 87.18060107 104.81226545 90.8125 106.125 C91.78832031 106.47820313 92.76414062 106.83140625 93.76953125 107.1953125 C94.50558594 107.46085937 95.24164062 107.72640625 96 108 C96 108.66 96 109.32 96 110 C112.23665664 112.34723471 127.18565537 111.66593396 143.4519043 109.85083008 C168.41409497 107.08885447 193.79425999 106.00700388 218 114 C218 114.66 218 115.32 218 116 C218.87785156 115.93296875 219.75570312 115.8659375 220.66015625 115.796875 C224.5750611 116.03497448 226.23829537 117.03980929 229.4375 119.25 C232.47479218 121.30222444 235.43904669 123.30126753 238.6875 125 C248.27301029 130.78747791 253.41935166 138.56751247 259 148 C259.55071167 148.90322998 259.55071167 148.90322998 260.11254883 149.82470703 C262.09282046 153.14353294 263.52158275 156.0641072 264.1875 159.875 C264.53503135 162.72139555 264.53503135 162.72139555 266 165 C267.99178246 181.17568785 265.96917878 193.78758758 258 208 C257.34 208 256.68 208 256 208 C255.73832031 208.59683594 255.47664063 209.19367187 255.20703125 209.80859375 C252.46874484 214.78004578 246.96208669 218.4480697 242 221 C241.34 221 240.68 221 240 221 C240 221.99 240 222.98 240 224 C240.99 224.33 241.98 224.66 243 225 C243 225.66 243 226.32 243 227 C243.66 227 244.32 227 245 227 C245 227.66 245 228.32 245 229 C246.32 229.66 247.64 230.32 249 231 C224.36344108 246.04126755 167.38103049 240.93869942 140.41601562 234.60742188 C129.92068542 231.96874144 119.86809339 228.46446156 110 224 C109.09636719 223.6184375 108.19273437 223.236875 107.26171875 222.84375 C96.8677535 218.12836881 87.96506423 210.97492925 79 204 C78.3719043 203.51289551 77.74380859 203.02579102 77.09667969 202.52392578 C75.68968979 201.39924053 74.33758209 200.20640443 73 199 C73 198.34 73 197.68 73 197 C72.34 197 71.68 197 71 197 C71 196.34 71 195.68 71 195 C69.67741528 194.31225595 68.34013497 193.65288627 67 193 C65.55367187 192.28263672 65.55367187 192.28263672 64.078125 191.55078125 C59.01941798 189.40504035 53.71947159 188.77573341 48.3125 188 C47.18634277 187.83266357 46.06018555 187.66532715 44.89990234 187.49291992 C23.96248683 184.46580633 2.83092453 182.24917331 -18.3125 181.4375 C-19.32505859 181.39431641 -20.33761719 181.35113281 -21.38085938 181.30664062 C-63.3468671 179.64488168 -102.98021804 181.84350352 -141.2265625 200.04125977 C-148.01219524 203.23794315 -154.81246284 205.85155774 -162 208 C-163.47895752 208.44303467 -163.47895752 208.44303467 -164.98779297 208.89501953 C-172.17079026 210.87471507 -178.93717302 211.54492266 -186.375 211.5 C-187.49841797 211.49427979 -188.62183594 211.48855957 -189.77929688 211.48266602 C-208.5698681 211.08920862 -227.35592372 205.75323183 -244 197 C-244 196.34 -244 195.68 -244 195 C-245.65 194.67 -247.3 194.34 -249 194 C-242.22598056 211.32525708 -229.95990903 237.02004548 -212 246 C-212 246.66 -212 247.32 -212 248 C-211.26007813 248.26296875 -210.52015625 248.5259375 -209.7578125 248.796875 C-206.99410799 250.00257045 -205.16753414 251.31485712 -202.875 253.25 C-188.75657938 264.42516681 -169.52181529 272.10626327 -152 276 C-151.35627441 276.14663086 -150.71254883 276.29326172 -150.04931641 276.44433594 C-122.91864442 282.42195379 -93.4548421 280.41548861 -69.1875 266.25 C-58.70640383 259.47711624 -58.70640383 259.47711624 -51 250 C-50.34 250 -49.68 250 -49 250 C-48.34 248.35 -47.68 246.7 -47 245 C-40.72627697 245.53325349 -34.55696932 246.36338722 -28.34912109 247.40844727 C-17.53159838 249.21860724 -6.82441309 250.41816559 4.125 251.0625 C36.83997216 253.02406627 36.83997216 253.02406627 50 262 C50 262.66 50 263.32 50 264 C50.66 264 51.32 264 52 264 C52 264.66 52 265.32 52 266 C52.89138672 266.34224609 52.89138672 266.34224609 53.80078125 266.69140625 C56.60364073 268.35918232 57.57791372 270.11968957 59.1875 272.9375 C59.69667969 273.81277344 60.20585938 274.68804688 60.73046875 275.58984375 C64.06056208 281.91189786 63.88641912 288.92360425 61.9375 295.6875 C53.19698757 310.63095673 40.10365405 314.73746787 24 321 C126.96 321.33 229.92 321.66 336 322 C339.86772302 314.26455395 343.28593589 307.11026217 346 299 C346.82564453 299.16435547 346.82564453 299.16435547 347.66796875 299.33203125 C354.25344146 300.58786558 360.8660017 301.60402699 367.5 302.5625 C368.36520264 302.68923096 369.23040527 302.81596191 370.12182617 302.9465332 C382.5584748 304.71785244 394.76811799 305.20516474 407.3125 305.1875 C408.1750238 305.18656342 409.03754761 305.18562683 409.9262085 305.18466187 C435.64731177 305.12456445 460.97444012 302.83328696 486.50439453 299.8527832 C492.00045399 299.21181095 497.49870137 298.59434568 503 298 C503.90793304 297.90143707 504.81586609 297.80287415 505.75131226 297.70132446 C520.62305013 296.13023321 535.39188193 295.65684898 550.3425293 295.68432617 C553.9311342 295.68749438 557.51891733 295.66387583 561.10742188 295.63867188 C582.93032475 295.57891917 605.14267839 297.04755946 626 304 C626 375.94 626 447.88 626 522 C543.08131014 522.2214386 543.08131014 522.2214386 517.42298889 522.28215027 C516.5079038 522.28432094 515.59281872 522.28649161 514.65000378 522.28872806 C483.84074004 522.36161329 453.0314673 522.41936686 422.22215271 522.46577454 C420.71372965 522.46805248 420.71372965 522.46805248 419.1748334 522.47037644 C397.31915461 522.50329981 375.46347305 522.53377161 353.60778734 522.56171862 C342.88948457 522.57543911 332.17118254 522.58970123 321.45288086 522.60424805 C320.38629124 522.6056864 319.31970162 522.60712475 318.2207911 522.60860668 C283.66071761 522.65546647 249.10084218 522.7380795 214.54088864 522.83926943 C179.02068663 522.94308182 143.5005942 523.01075232 107.98024305 523.03306489 C102.96117776 523.03623451 97.94211284 523.03981651 92.92304802 523.04364967 C91.44133842 523.04476215 91.44133842 523.04476215 89.92969528 523.04589711 C74.04018566 523.05888696 58.15101523 523.10988072 42.26164383 523.17515237 C26.28040052 523.239988 10.29949287 523.26462898 -5.68187731 523.24851515 C-15.17247416 523.24016001 -24.66184076 523.26234848 -34.15221503 523.32877297 C-40.50000429 523.37015895 -46.84699216 523.37120655 -53.19483771 523.34014995 C-56.80717762 523.32361111 -60.41719931 523.32394785 -64.02928608 523.37371501 C-80.07937382 523.58220514 -91.84292064 522.92945464 -104.41706348 512.29211805 C-106.68798788 510.43840985 -109.15259996 508.98079749 -111.68359375 507.51171875 C-112.48603516 507.03283203 -113.28847656 506.55394531 -114.11523438 506.06054688 C-114.88158203 505.60744141 -115.64792969 505.15433594 -116.4375 504.6875 C-118.04036458 503.73307292 -119.64322917 502.77864583 -121.24609375 501.82421875 C-122.41857666 501.13078369 -122.41857666 501.13078369 -123.61474609 500.42333984 C-125.23446366 499.45681442 -126.846591 498.47747749 -128.45166016 497.48681641 C-134.29914725 493.89392034 -140.243523 490.81721767 -146.5 488 C-147.44617187 487.57138672 -148.39234375 487.14277344 -149.3671875 486.70117188 C-158.06285975 482.83707623 -166.91645637 479.80075929 -176 477 C-178.00178012 476.33869764 -180.00251089 475.67415258 -182 475 C-181.835 473.783125 -181.67 472.56625 -181.5 471.3125 C-179.86836165 456.05188254 -181.37345273 444.32904586 -191 432 C-221.66349176 398.90132007 -276.42429123 387.15949311 -318 374 C-315.76982922 371.76982922 -313.78878744 371.14390733 -310.84619141 370.14916992 C-294.24564642 364.51318243 -280.02198356 354.54706099 -270 340 C-269.195625 338.989375 -268.39125 337.97875 -267.5625 336.9375 C-250.40023925 312.57816216 -247.91555927 277.98177623 -252.52392578 249.40087891 C-255.54265581 232.63052472 -261.53999166 217.25701183 -269 202 C-269.51433594 200.94167969 -270.02867187 199.88335938 -270.55859375 198.79296875 C-275.09251195 190.02054345 -281.02194179 181.81412468 -287.3046875 174.2109375 C-289 172 -289 172 -289 170 C-289.66 170 -290.32 170 -291 170 C-292.51497459 168.27737445 -293.963193 166.49564485 -295.375 164.6875 C-298.06313957 161.24865924 -300.51094688 158.58890928 -304 156 C-304 155.34 -304 154.68 -304 154 C-304.55945313 153.76023437 -305.11890625 153.52046875 -305.6953125 153.2734375 C-308.49499114 151.72649642 -310.54271084 149.81197519 -312.875 147.625 C-315.68593072 145.0344529 -318.38239185 142.59299034 -321.625 140.5625 C-322.40875 140.046875 -323.1925 139.53125 -324 139 C-324 138.34 -324 137.68 -324 137 C-324.66 136.67 -325.32 136.34 -326 136 C-322.04328884 134.6618184 -318.08437472 133.330278 -314.125 132 C-312.99707031 131.6184375 -311.86914062 131.236875 -310.70703125 130.84375 C-309.63066406 130.4828125 -308.55429687 130.121875 -307.4453125 129.75 C-306.45031738 129.41484375 -305.45532227 129.0796875 -304.43017578 128.734375 C-302 128 -302 128 -300 128 C-300.2165625 127.15824219 -300.433125 126.31648438 -300.65625 125.44921875 C-306.35906033 100.02418938 -304.51242083 72.97227221 -290.75 50.4375 C-285.15811952 42.04967928 -279.30596296 34.42009384 -271.04296875 28.53515625 C-268.9416851 27.04708212 -268.9416851 27.04708212 -267.19921875 25.0859375 C-264.29235347 22.32880418 -261.11228792 20.50473951 -257.625 18.5625 C-256.57022461 17.97263306 -256.57022461 17.97263306 -255.49414062 17.37084961 C-248.90539424 13.7841859 -242.20280986 11.13511864 -235 9 C-233.78699219 8.63390625 -232.57398438 8.2678125 -231.32421875 7.890625 C-226.03059804 6.6061156 -220.7338312 6.65772182 -215.3125 6.6875 C-214.24322266 6.69313965 -213.17394531 6.6987793 -212.07226562 6.70458984 C-204.35090307 6.82325351 -197.3506414 7.50586431 -190 10 C-188.75605469 10.41378906 -187.51210938 10.82757812 -186.23046875 11.25390625 C-178.47905118 13.95111983 -171.16839108 17.29049496 -163.86889648 21.02685547 C-150.33073142 27.95320372 -137.62645642 33.20871522 -122.25 33.3125 C-121.06144409 33.32095947 -121.06144409 33.32095947 -119.84887695 33.32958984 C-110.07275079 33.2088843 -101.84729969 29.96296862 -93 26 C-92.08605469 25.59136719 -91.17210937 25.18273438 -90.23046875 24.76171875 C-83.79495273 21.71047409 -77.90031991 18.05370965 -71.9375 14.1875 C-49.18828984 -0.45859751 -26.52886015 -9.28510105 0 0 Z " fill="#202020" transform="translate(1174,2678)"/>
<path d="M0 0 C292.38 0 584.76 0 886 0 C886 312 886 312 882 320 C877.93830467 332.51692384 876.39837156 345.4646187 875.68359375 358.5546875 C874.49879411 378.4370546 869.93863719 393.81259407 855.125 407.6875 C841.96160092 419.11834882 827.50272092 425.00927995 810 426 C808.70255859 426.07927734 808.70255859 426.07927734 807.37890625 426.16015625 C788.03573324 426.76381022 770.05544169 421.22450393 755 409 C753.453125 407.88625 753.453125 407.88625 751.875 406.75 C744.22879997 399.43624345 738.66856129 390.42777425 734 381 C733.1646875 379.3603125 733.1646875 379.3603125 732.3125 377.6875 C725.46058528 358.43688246 725.50259807 336.12696186 734.1640625 317.49609375 C736.75578507 312.16159729 739.70450514 307.28858129 743.1015625 302.421875 C747.22678447 295.59596815 746.81190912 287.74934433 747 280 C746.34 280 745.68 280 745 280 C742 275.61538462 742 275.61538462 742 273 C741.2265625 272.62875 741.2265625 272.62875 740.4375 272.25 C737.88209061 270.93953365 735.43143002 269.48920874 732.9765625 268 C724.37756163 263.64951735 713.3185726 263.30321742 704.08203125 265.9921875 C695.5539648 269.17336297 688.33321129 273.77897637 680.94921875 279.0234375 C678 281 678 281 676 281 C676 281.66 676 282.32 676 283 C673.98046875 284.48046875 673.98046875 284.48046875 671.1875 286.1875 C668.16386741 288.04581453 665.15388057 289.89669556 662.20703125 291.875 C650.75910068 299.53999247 638.01614217 304.1174029 624.1171875 302.69140625 C618.60905287 301.46967714 613.85054118 298.81228185 609 296 C609 295.34 609 294.68 609 294 C608.01 294 607.02 294 606 294 C594.88015638 282.36238095 589.19996685 265.46488137 583.50048828 250.78076172 C581.72427111 246.21591963 579.93892014 241.73656872 577.703125 237.375 C576 234 576 234 576 232 C575.34 232 574.68 232 574 232 C570 226.58823529 570 226.58823529 570 224 C569.34 224 568.68 224 568 224 C567.175 222.989375 566.35 221.97875 565.5 220.9375 C561.63833649 216.30163825 557.05886915 213.22449167 552 210 C551.06929687 209.39929688 550.13859375 208.79859375 549.1796875 208.1796875 C525.52962346 193.61124805 495.62340003 191.19237531 468.8125 197.125 C459.01801946 199.4671215 449.43265172 202.48357013 440 206 C438.97390625 206.37640625 437.9478125 206.7528125 436.890625 207.140625 C424.48672003 212.00624518 412.56089261 218.67646124 401.2265625 225.6484375 C391.82334489 231.35635556 381.89815237 236.21763723 372 241 C370.82050781 241.57363281 369.64101562 242.14726562 368.42578125 242.73828125 C352.93575027 249.85627724 335.2034332 252.90534459 318.625 247.9765625 C309.69270655 245.54467281 301.18911579 245.63883415 292 245.9375 C275.63076897 246.43115861 261.45235072 244.61895528 245.875 239.1875 C244.84584473 238.83494141 243.81668945 238.48238281 242.75634766 238.11914062 C231.0820762 234.06651906 220.1670336 229.36058467 209.546875 223.02734375 C206.80687896 221.41402639 204.0019056 219.99979457 201.14453125 218.60546875 C196.19782122 216.15913476 191.57216122 213.36330562 186.9375 210.375 C186.11878418 209.85284912 185.30006836 209.33069824 184.45654297 208.79272461 C179.84790256 205.84819196 175.25873248 202.87387018 170.67333984 199.89331055 C143.16953087 182.02403013 115.49666692 164.81417882 84 155 C81.99863343 154.33744714 79.99817605 153.67211376 78 153 C78.165 151.7625 78.33 150.525 78.5 149.25 C80.104521 133.92323221 78.29309516 122.01923579 68.4609375 109.671875 C65.46703966 106.42135734 62.28847554 103.80336268 58.65234375 101.3046875 C58.10707031 100.87414062 57.56179688 100.44359375 57 100 C57 99.34 57 98.68 57 98 C56.27941406 97.72671875 55.55882812 97.4534375 54.81640625 97.171875 C52.06057277 96.02520365 49.53922509 94.70979145 46.9375 93.25 C36.40624154 87.3434082 25.50691711 82.33942958 14.375 77.6875 C13.70491913 77.40653473 13.03483826 77.12556946 12.3444519 76.83609009 C-0.90998407 71.2956525 -14.35856343 66.50291669 -28 62 C-30.24644943 61.24845818 -32.49254038 60.49584401 -34.73828125 59.7421875 C-39.71357001 58.07495793 -44.69225322 56.41836232 -49.67382812 54.77001953 C-52.45060857 53.85083759 -55.2256035 52.92635051 -58 52 C-55.24911039 49.24911039 -51.97260753 48.44459318 -48.375 47.1875 C-42.38196711 45.03406671 -37.2883162 42.59605502 -32 39 C-31.34 39 -30.68 39 -30 39 C-30 38.34 -30 37.68 -30 37 C-24.58823529 33 -24.58823529 33 -22 33 C-22 32.34 -22 31.68 -22 31 C-21.34 31 -20.68 31 -20 31 C-20 30.34 -20 29.68 -20 29 C-18.84566182 27.84566182 -17.68714544 26.69519635 -16.5078125 25.56640625 C-13.23438754 22.16577565 -10.11505287 18.23010573 -8 14 C-7.34 14 -6.68 14 -6 14 C-5.7525 13.175 -5.505 12.35 -5.25 11.5 C-3.83271241 7.53159474 -1.8845129 3.76902581 0 0 Z " fill="#242424" transform="translate(914,0)"/>
<path d="M0 0 C1.77685181 -0.01191879 1.77685181 -0.01191879 3.58959961 -0.02407837 C53.32517744 -0.28079872 99.28796689 10.86316734 135.5 46.375 C138.21449315 49.06480792 140.90714084 51.7747992 143.57421875 54.51171875 C145.36837689 56.43441282 145.36837689 56.43441282 147.5 57.375 C147.5 58.035 147.5 58.695 147.5 59.375 C148.3353125 59.76751953 148.3353125 59.76751953 149.1875 60.16796875 C151.75906133 61.51021951 154.09150031 63.07108131 156.5 64.6875 C166.11490318 70.78288955 175.81009944 75.65021555 187.5 73.375 C197.64287712 66.84304585 199.98191339 53.09557136 202.87646484 42.18066406 C205.32644181 33.15875968 208.22844619 24.60776041 215.5 18.375 C215.98984375 17.88386719 216.4796875 17.39273437 216.984375 16.88671875 C221.86870462 12.20008819 227.03931966 10.18078022 233.5 8.375 C234.54800781 8.07464844 235.59601563 7.77429687 236.67578125 7.46484375 C281.63383772 -3.09907116 336.11542645 11.51055658 379.3984375 23.51611328 C382.59462157 24.40120267 385.7966583 25.26230313 389 26.12109375 C400.51715478 29.24075706 411.81655042 32.70913658 423.02734375 36.796875 C426.0542398 37.89049699 429.0909817 38.86767398 432.17993164 39.77050781 C437.19711516 41.26424112 442.14678612 42.91487795 447.09375 44.625 C447.96592163 44.92438477 448.83809326 45.22376953 449.73669434 45.53222656 C453.41805862 46.79597111 457.09787503 48.06419583 460.77783203 49.33203125 C463.48676738 50.26459196 466.19649021 51.19483813 468.90625 52.125 C469.72009155 52.40633789 470.53393311 52.68767578 471.37243652 52.97753906 C477.0405354 54.9228415 482.74920439 56.69039668 488.5 58.375 C488.5 59.035 488.5 59.695 488.5 60.375 C487.71238281 60.643125 486.92476562 60.91125 486.11328125 61.1875 C473.05727075 65.8845736 462.44794573 72.67268256 452.5 82.375 C451.51193359 83.30505859 451.51193359 83.30505859 450.50390625 84.25390625 C447.54893916 87.09448751 445.01623401 89.93448178 442.6875 93.3125 C441.965625 94.323125 441.24375 95.33375 440.5 96.375 C439.84 96.375 439.18 96.375 438.5 96.375 C438.2525 97.08011719 438.005 97.78523438 437.75 98.51171875 C436.33896341 101.74387443 434.5749274 104.33828902 432.5 107.1875 C431.79875 108.16332031 431.0975 109.13914062 430.375 110.14453125 C429.75625 110.88058594 429.1375 111.61664062 428.5 112.375 C427.84 112.375 427.18 112.375 426.5 112.375 C426.2525 112.92671875 426.005 113.4784375 425.75 114.046875 C424.25765526 116.82636707 422.46327477 119.1564707 420.5 121.625 C419.79875 122.51703125 419.0975 123.4090625 418.375 124.328125 C417.446875 125.34132813 417.446875 125.34132813 416.5 126.375 C415.84 126.375 415.18 126.375 414.5 126.375 C414.5 127.035 414.5 127.695 414.5 128.375 C393.96234091 146.96826533 370.3279718 152.80383514 343.125 152.6875 C342.36475525 152.6876712 341.6045105 152.68784241 340.82122803 152.6880188 C327.16551283 152.67515367 313.65092016 151.74052812 300.04995728 150.59576416 C287.09060643 149.51464065 274.47028704 148.99759724 261.5 150.375 C260.28828125 150.48972656 259.0765625 150.60445312 257.828125 150.72265625 C240.1169167 152.9047788 223.90387424 160.2175707 212.5 174.375 C210.79956102 177.02646749 209.22128615 179.6964134 207.7265625 182.46875 C207.32179688 183.0978125 206.91703125 183.726875 206.5 184.375 C205.84 184.375 205.18 184.375 204.5 184.375 C204.37625 185.2825 204.2525 186.19 204.125 187.125 C203.5 190.375 203.5 190.375 202.5 192.3125 C198.39680539 200.77533889 199.79085323 213.40197943 201.5 222.375 C202.16 222.375 202.82 222.375 203.5 222.375 C203.73074219 222.89449219 203.96148437 223.41398437 204.19921875 223.94921875 C206.38647381 228.62631357 208.50184742 231.98526194 212.5 235.375 C213.15355469 235.93058594 213.80710937 236.48617188 214.48046875 237.05859375 C232.17952623 250.84429179 258.07594229 250.5391453 279.3125 248.4375 C305.24364047 245.89842703 332.02520263 244.42524922 353.5 261.375 C357.2022184 264.74813232 360.42869222 268.42617571 363.5 272.375 C363.5 273.035 363.5 273.695 363.5 274.375 C364.16 274.375 364.82 274.375 365.5 274.375 C365.5 275.695 365.5 277.015 365.5 278.375 C359.50918178 280.07609653 353.51015858 281.74352535 347.5 283.375 C346.37078125 283.68179687 345.2415625 283.98859375 344.078125 284.3046875 C327.40213746 288.49528541 310.22254827 288.743121 293.125 288.6875 C292.09586487 288.68733887 291.06672974 288.68717773 290.00640869 288.68701172 C273.79810765 288.66962117 257.73300352 287.88595938 241.57574463 286.66314697 C215.8003196 284.72472479 189.14690345 283.41549717 163.5 287.375 C162.2941626 287.5603833 162.2941626 287.5603833 161.06396484 287.74951172 C145.09504599 290.33322579 129.08039662 294.67732338 114.40527344 301.54980469 C112.14362826 302.5293486 109.94216725 303.05988164 107.5 303.375 C107.5 304.035 107.5 304.695 107.5 305.375 C106.38625 305.890625 105.2725 306.40625 104.125 306.9375 C99.61007332 309.17077623 95.64923839 312.00187698 91.6015625 314.984375 C89.5 316.375 89.5 316.375 87.5 316.375 C87.5 317.035 87.5 317.695 87.5 318.375 C86.37474845 319.40149277 85.19717355 320.37087696 84 321.3125 C66.96024887 335.90938415 62.99687272 357.6128696 61.3125 378.875 C61.10168171 381.78339322 60.90059867 384.6923022 60.70214844 387.6015625 C59.77622378 400.30506993 59.77622378 400.30506993 57.5 406.375 C56.94878347 408.16375168 56.40777086 409.95566797 55.875 411.75 C55.48441406 413.06097656 55.48441406 413.06097656 55.0859375 414.3984375 C54.89257812 415.05070312 54.69921875 415.70296875 54.5 416.375 C53.84 416.375 53.18 416.375 52.5 416.375 C52.355625 417.15875 52.21125 417.9425 52.0625 418.75 C51.5 421.375 51.5 421.375 50.5 423.375 C49.84 423.375 49.18 423.375 48.5 423.375 C48.27957031 424.09429688 48.05914062 424.81359375 47.83203125 425.5546875 C46.17398369 429.06527501 44.08841464 430.93274942 41.1875 433.5 C39.77017578 434.77230469 39.77017578 434.77230469 38.32421875 436.0703125 C31.82372881 441.375 31.82372881 441.375 27.5 441.375 C27.5 442.035 27.5 442.695 27.5 443.375 C22.36186373 446.37224616 17.2599021 448.12786761 11.5 449.5625 C10.50419922 449.81241699 10.50419922 449.81241699 9.48828125 450.06738281 C-10.53155992 454.85601869 -32.01878702 452.38289765 -49.94140625 442.00390625 C-60.94326739 434.99966794 -69.44981973 426.31616583 -76.5 415.375 C-76.99628906 414.653125 -77.49257812 413.93125 -78.00390625 413.1875 C-80.15051469 409.15210031 -81.34369895 404.93759579 -82.625 400.5625 C-82.88925781 399.69818359 -83.15351563 398.83386719 -83.42578125 397.94335938 C-89.55140062 377.34324347 -85.93168997 358.96763719 -78.5 339.375 C-77.84 339.375 -77.18 339.375 -76.5 339.375 C-76.4175 338.859375 -76.335 338.34375 -76.25 337.8125 C-74.99821807 333.74420872 -72.59739344 330.1308295 -70.34765625 326.53125 C-67.13148213 320.94586576 -66.63130507 315.74542948 -67.5 309.375 C-68.83170309 306.39515833 -68.83170309 306.39515833 -70.5 304.375 C-70.5 303.715 -70.5 303.055 -70.5 302.375 C-71.16 302.375 -71.82 302.375 -72.5 302.375 C-73.20125 301.4675 -73.9025 300.56 -74.625 299.625 C-78.24004309 295.07391896 -83.09975684 293.17508105 -88.5 291.375 C-91.55796942 291.12331527 -94.62023211 291.14371712 -97.6875 291.125 C-98.51314453 291.104375 -99.33878906 291.08375 -100.18945312 291.0625 C-106.90029346 291.02019368 -111.81387503 292.48212502 -117.8125 295.5625 C-119.5 296.375 -119.5 296.375 -122.5 296.375 C-122.5 297.035 -122.5 297.695 -122.5 298.375 C-123.9540625 299.179375 -123.9540625 299.179375 -125.4375 300 C-129.30081886 302.19184213 -132.93690624 304.66847697 -136.58203125 307.203125 C-138.5 308.375 -138.5 308.375 -140.5 308.375 C-140.5 309.035 -140.5 309.695 -140.5 310.375 C-156.0080963 322.0135713 -172.06487297 329.22978568 -191.5 328.375 C-198.78093013 327.08322207 -205.74639572 323.1189385 -210.5 317.375 C-210.5 316.715 -210.5 316.055 -210.5 315.375 C-211.16 315.375 -211.82 315.375 -212.5 315.375 C-225.84042601 298.21407641 -229.70156907 279.37918684 -229.53515625 258.15600586 C-229.54602521 255.79653202 -229.56028528 253.43707179 -229.57763672 251.07763672 C-229.61377795 244.7328979 -229.60011051 238.38921191 -229.57460403 232.0444572 C-229.55627425 226.05577561 -229.57033805 220.06718573 -229.58202159 214.0785063 C-229.60471991 201.5065257 -229.57877743 188.93501531 -229.53561866 176.36311186 C-229.49981141 165.59934389 -229.50615943 154.83626564 -229.54296875 144.07250977 C-229.58585523 131.52606101 -229.60260196 118.98002075 -229.57807064 106.43350893 C-229.56546599 99.8085186 -229.56384949 93.18391178 -229.59036255 86.55894279 C-229.61352862 80.33750343 -229.59734201 74.11736415 -229.5512085 67.89606476 C-229.54066415 65.61892159 -229.54361101 63.34166828 -229.56130981 61.06456947 C-229.65179244 48.23780674 -229.70545238 39.97406374 -220.5 30.375 C-220.17 29.385 -219.84 28.395 -219.5 27.375 C-218.84 27.045 -218.18 26.715 -217.5 26.375 C-216.44841627 24.24254051 -215.48296377 22.06724959 -214.5625 19.875 C-214.05847656 18.6890625 -213.55445313 17.503125 -213.03515625 16.28125 C-211.31815349 12.04796919 -209.89860317 7.72206031 -208.5 3.375 C-207.87770508 3.48569824 -207.25541016 3.59639648 -206.61425781 3.71044922 C-167.03276978 10.6898639 -127.94524262 10.77759787 -88.01196289 6.33334351 C-84.88334599 5.98708953 -81.75350252 5.65463419 -78.62304688 5.32543945 C-69.82491121 4.39782963 -61.03177063 3.45096946 -52.25 2.37890625 C-34.83295982 0.35216247 -17.52221125 0.06153026 0 0 Z " fill="#262626" transform="translate(228.5,1473.625)"/>
<path d="M0 0 C58.77358808 -0.08561733 117.54718248 -0.1652171 176.32081604 -0.2117157 C177.19109661 -0.21240598 178.06137718 -0.21309627 178.95802988 -0.21380747 C197.87292405 -0.22877305 216.78781889 -0.24262381 235.70271471 -0.25532665 C244.97897467 -0.26156317 254.25523444 -0.26804596 263.53149414 -0.2746582 C264.45457886 -0.275312 265.37766359 -0.27596579 266.32872057 -0.2766394 C296.23253968 -0.29793482 326.13631146 -0.33548291 356.04010191 -0.3814861 C386.77776189 -0.42868606 417.5153957 -0.4594358 448.25309131 -0.46957495 C452.59753582 -0.47101566 456.94198024 -0.47264384 461.28642464 -0.47438622 C462.14144859 -0.47472333 462.99647255 -0.47506045 463.87740632 -0.47540778 C477.62445932 -0.48130953 491.37143121 -0.50448133 505.11845117 -0.53416017 C518.94884318 -0.56364868 532.77915503 -0.57482684 546.60957735 -0.56750689 C554.82005757 -0.5637126 563.0302437 -0.57376507 571.24067065 -0.60398772 C577.3827872 -0.62504589 583.52462278 -0.6197521 589.66675056 -0.60449447 C592.14349147 -0.60238859 594.6202575 -0.6086729 597.09694927 -0.62441591 C610.97238917 -0.70745323 622.94870338 0.13091096 636 5 C637.49942334 5.4965945 639.00012503 5.98941875 640.50390625 6.47265625 C641.17437988 6.70227051 641.84485352 6.93188477 642.53564453 7.16845703 C645.99958844 8.3372893 649.48284908 9.44503321 652.96484375 10.55859375 C654.43949245 11.0317785 655.9141012 11.50508777 657.38867188 11.97851562 C659.66309279 12.70857363 661.93781682 13.43760103 664.21362305 14.16333008 C671.80132585 16.58441439 679.30734212 19.02625777 686.66821289 22.08178711 C692.04176474 24.19778842 697.61966768 25.76095954 703.140625 27.44335938 C708.01234086 28.95562117 712.52977125 30.53237373 717 33 C714.44722473 34.28300104 711.88566845 35.54710959 709.3203125 36.8046875 C707.9218203 37.49468082 706.5233844 38.18478825 705.125 38.875 C704.43019531 39.21402344 703.73539063 39.55304687 703.01953125 39.90234375 C694.53630697 44.10401604 687.89000268 49.55934532 681 56 C680.29359375 56.65226562 679.5871875 57.30453125 678.859375 57.9765625 C674.37608789 62.26569151 670.77334867 66.87864068 667.19921875 71.94140625 C663.41392414 77.20585684 659.35495888 82.25491502 655.32080078 87.32958984 C654.0665519 88.91583214 652.82774174 90.51424609 651.58984375 92.11328125 C650.87957031 93.02464844 650.16929687 93.93601562 649.4375 94.875 C648.81746094 95.67679687 648.19742188 96.47859375 647.55859375 97.3046875 C647.04425781 97.86414063 646.52992188 98.42359375 646 99 C645.34 99 644.68 99 644 99 C643.67 99.99 643.34 100.98 643 102 C640.19860336 104.57805067 637.06856378 106.75064555 634 109 C632.79537109 109.90878906 632.79537109 109.90878906 631.56640625 110.8359375 C622.97711667 117.13016891 614.43692218 120.97995055 604 123 C603.67 123.33 603.34 123.66 603 124 C593.48682341 126.67445203 583.59689435 126.34894902 573.8125 126.3125 C572.9503891 126.3126712 572.0882782 126.31284241 571.20004272 126.3130188 C557.67416006 126.30170837 544.28652139 125.57646335 530.8125 124.4375 C517.44412851 123.31168373 504.37801031 122.35226853 491 124 C490.24831543 124.09055664 489.49663086 124.18111328 488.72216797 124.27441406 C472.74461124 126.34021295 458.2991187 131.09011813 447 143 C445.92677145 143.90791462 444.84315214 144.80367486 443.75 145.6875 C440.98257806 147.7042322 440.98257806 147.7042322 440 150 C439.34 150 438.68 150 438 150 C437.62875 150.9590625 437.62875 150.9590625 437.25 151.9375 C435.59188428 155.99988351 433.7964416 159.99724906 432 164 C431.34 164 430.68 164 430 164 C430.0309375 165.5778125 430.0309375 165.5778125 430.0625 167.1875 C430 171 430 171 429.51953125 173.359375 C427.55414254 183.34886951 428.89144407 192.20738932 434 201 C439.17267788 207.96642908 444.85618729 213.48131939 453.0625 216.5625 C454.59583984 217.15224609 454.59583984 217.15224609 456.16015625 217.75390625 C457.43647906 218.18027991 458.71697456 218.5942413 460 219 C460.81710449 219.2676416 461.63420898 219.5352832 462.47607422 219.81103516 C470.90001723 222.26662689 478.93449133 222.39628672 487.62695312 222.28125 C489.99625581 222.25004931 492.36488673 222.24025462 494.734375 222.234375 C502.24075709 222.19566587 509.64443775 221.93627896 517.12158203 221.22705078 C522.55464205 220.7984888 527.99039362 220.81561085 533.4375 220.8125 C534.56220703 220.80025391 535.68691406 220.78800781 536.84570312 220.77539062 C551.19885358 220.75065803 564.12276975 222.59903226 576 231 C576.99 231.33 577.98 231.66 579 232 C579 232.66 579 233.32 579 234 C579.8353125 234.37125 579.8353125 234.37125 580.6875 234.75 C585.48277451 237.34204027 588.37939297 239.69619518 590 245 C590.66 245 591.32 245 592 245 C594 248 594 248 594 251 C593.34 251 592.68 251 592 251 C592 251.66 592 252.32 592 253 C588.7 253.33 585.4 253.66 582 254 C582 254.66 582 255.32 582 256 C578.10689692 256.82594764 574.21011953 257.63315896 570.3125 258.4375 C569.22904297 258.66759766 568.14558594 258.89769531 567.02929688 259.13476562 C551.62921197 262.28789874 536.33700068 262.16485302 520.6875 262.125 C519.07903702 262.12267365 519.07903702 262.12267365 517.43807983 262.12030029 C481.41645107 262.05899491 481.41645107 262.05899491 464.73965454 260.24627686 C453.76535478 259.0703022 442.90038035 258.68801851 431.86816406 258.73925781 C429.10459901 258.75007989 426.34167197 258.73922145 423.578125 258.7265625 C413.19111546 258.71910879 403.25729782 259.35441311 393 261 C391.37586543 261.19485421 389.75098637 261.38375555 388.125 261.5625 C385.13845067 261.66080315 385.13845067 261.66080315 384 263 C381.62725801 263.44677585 379.25645666 263.85547992 376.875 264.25 C368.57998893 265.70439319 360.9207413 268.16313875 353 271 C347.37288136 273 347.37288136 273 344 273 C344 273.66 344 274.32 344 275 C342.96101563 275.49628906 341.92203125 275.99257813 340.8515625 276.50390625 C327.39870709 282.91741288 327.39870709 282.91741288 315.859375 292.203125 C314 294 314 294 312 294 C312 294.66 312 295.32 312 296 C310.125 298.125 310.125 298.125 308 300 C307.34 300 306.68 300 306 300 C305.7525 300.721875 305.505 301.44375 305.25 302.1875 C304 305 304 305 302.1875 307.125 C292.6032999 319.72137728 291.5625088 335.9097993 290.4375 351.125 C288.48156968 376.86448019 288.48156968 376.86448019 284.5625 384.8125 C284.11777344 385.72386719 283.67304688 386.63523437 283.21484375 387.57421875 C282.81394531 388.37472656 282.41304688 389.17523438 282 390 C281.319375 391.546875 281.319375 391.546875 280.625 393.125 C276.52283875 400.3826699 270.95695717 407.296492 264 412 C263.01 412 262.02 412 261 412 C261 412.66 261 413.32 261 414 C258.68798021 415.38721187 256.3649307 416.70700438 254 418 C253.25878906 418.42023438 252.51757812 418.84046875 251.75390625 419.2734375 C234.06594159 428.37956595 212.3030498 427.49165364 193.625 422.375 C176.30336748 416.75324861 160.64043919 404.5216235 152.12109375 388.29296875 C150.30278489 384.57398862 148.61818509 380.80974284 147 377 C146.23623047 375.40091797 146.23623047 375.40091797 145.45703125 373.76953125 C143.71558086 369.6930534 143.22003041 365.69955544 142.8125 361.3125 C142.73354492 360.52230469 142.65458984 359.73210937 142.57324219 358.91796875 C141.42727112 346.73396465 141.65843669 335.57750215 146 324 C146.23074219 323.33226562 146.46148437 322.66453125 146.69921875 321.9765625 C150.18458714 312.48248208 155.39868783 303.40196825 161 295 C161.9569416 288.20067811 161.68443127 282.36798567 157.55859375 276.74609375 C151.20361357 269.62660468 144.86237863 265.36904551 135.21484375 264.76171875 C125.98300962 264.52782406 118.6620267 265.51559831 110 269 C108.67334123 269.35897826 107.34186121 269.70285125 106 270 C106 270.66 106 271.32 106 272 C104.02 272.66 102.04 273.32 100 274 C100 274.66 100 275.32 100 276 C98.98550781 276.55945313 97.97101563 277.11890625 96.92578125 277.6953125 C93.15377811 279.85101372 89.68285987 282.30258887 86.1875 284.875 C71.18688223 295.6760769 56.1111613 304.38913502 37.04199219 302.34570312 C28.03856898 300.8214507 20.46506746 295.11929191 15 288 C12.76405685 284.43809056 10.84878368 280.77482996 9 277 C8.61972656 276.26265625 8.23945313 275.5253125 7.84765625 274.765625 C5.702913 270.58944568 3.77207886 266.34964811 2 262 C1.64660112 261.15572134 1.29320225 260.31144268 0.92909431 259.44157982 C-0.33264525 254.76780521 -0.26920245 250.37968022 -0.24050903 245.5597229 C-0.24221788 244.50920695 -0.24392673 243.45869099 -0.24568737 242.37634122 C-0.24898098 238.85710726 -0.2379805 235.33806405 -0.22705078 231.81884766 C-0.22648664 229.29582728 -0.22680328 226.77280657 -0.22793579 224.24978638 C-0.22839119 218.81832071 -0.22271923 213.38691645 -0.21146011 207.95546341 C-0.19519206 200.10254966 -0.18999577 192.24965913 -0.18748413 184.39673035 C-0.18310908 171.65526147 -0.16980512 158.91381824 -0.15087891 146.17236328 C-0.1325152 133.79671354 -0.1183611 121.42107077 -0.10986328 109.04541016 C-0.10933783 108.28231563 -0.10881239 107.5192211 -0.10827102 106.7330025 C-0.1056609 102.90470411 -0.1031335 99.07640567 -0.10064721 95.24810719 C-0.07992062 63.49871933 -0.04455136 31.74936365 0 0 Z " fill="#292929" transform="translate(0,0)"/>
<path d="M0 0 C3.44222623 -0.009659 6.88384188 -0.04075687 10.32592773 -0.07226562 C29.37645656 -0.16401048 48.43660263 1.03533628 66.91772461 5.99023438 C68.39293579 6.37429443 68.39293579 6.37429443 69.89794922 6.76611328 C90.58528722 12.33713734 108.47243086 21.40902559 125.54272461 34.24023438 C126.33291992 34.79066406 127.12311523 35.34109375 127.93725586 35.90820312 C128.46706055 36.34777344 128.99686523 36.78734375 129.54272461 37.24023438 C129.54272461 37.90023437 129.54272461 38.56023438 129.54272461 39.24023438 C130.12739502 39.49603271 130.71206543 39.75183105 131.31445312 40.01538086 C133.75924156 41.35925109 135.28303039 42.81294799 137.19506836 44.83789062 C137.88270264 45.55299805 138.57033691 46.26810547 139.27880859 47.00488281 C140.00527588 47.76317383 140.73174316 48.52146484 141.48022461 49.30273438 C152.43202643 60.48267436 166.38197511 73.19172891 182.85522461 73.55273438 C186.74228193 73.49240311 189.32870278 73.3219518 192.98022461 71.92773438 C200.76790884 63.7601631 202.98533432 53.69974392 205.93261719 43.10327148 C208.65390323 33.46710662 211.51052244 23.83075923 219.54272461 17.24023438 C220.31100586 16.59183594 221.07928711 15.9434375 221.87084961 15.27539062 C245.14421169 -2.451834 284.64003 4.60434126 311.62915039 8.227005 C354.08305124 14.1749734 395.57933441 26.36054547 436.08276367 40.07080078 C440.91846992 41.70522309 445.76157755 43.31703685 450.60522461 44.92773438 C452.25888827 45.47976431 453.91253433 46.03184697 455.56616211 46.58398438 C459.08952004 47.75890549 462.61608473 48.92369491 466.14428711 50.08398438 C467.54602173 50.54671753 467.54602173 50.54671753 468.97607422 51.01879883 C470.73906452 51.60062782 472.50283033 52.18011544 474.26757812 52.7565918 C480.12287305 54.69275357 485.84039557 56.89266099 491.54272461 59.24023438 C488.98539097 60.53835533 486.41339759 61.75775083 483.78491211 62.90429688 C475.10499087 66.76822972 467.52927068 70.66600906 460.54272461 77.24023438 C459.59139648 78.12453125 458.64006836 79.00882813 457.65991211 79.91992188 C450.13849613 87.08882826 443.80062337 94.97079567 437.54272461 103.24023438 C422.40086204 123.19776338 422.40086204 123.19776338 413.54272461 131.24023438 C412.93557617 131.80355469 412.32842773 132.366875 411.70288086 132.94726562 C407.9926213 136.24023438 407.9926213 136.24023438 404.54272461 136.24023438 C404.21272461 137.23023437 403.88272461 138.22023438 403.54272461 139.24023438 C401.22192575 140.71188678 398.99556524 141.96509084 396.54272461 143.17773438 C395.83229004 143.53037354 395.12185547 143.8830127 394.38989258 144.24633789 C379.65519638 151.22652515 363.76400818 152.44504177 347.66772461 152.49023438 C346.39904541 152.49418213 345.13036621 152.49812988 343.82324219 152.50219727 C331.91805623 152.46487525 320.09603527 151.57637727 308.23022461 150.67773438 C265.88737817 147.25517404 265.88737817 147.25517404 227.54272461 163.24023438 C225.81419348 164.85382482 224.19105968 166.54341887 222.54272461 168.24023438 C221.88272461 168.24023438 221.22272461 168.24023438 220.54272461 168.24023438 C220.54272461 168.90023437 220.54272461 169.56023438 220.54272461 170.24023438 C218.89269633 171.59410373 217.22528591 172.9270158 215.54272461 174.24023438 C215.21272461 174.90023437 214.88272461 175.56023438 214.54272461 176.24023438 C213.88272461 176.24023438 213.22272461 176.24023438 212.54272461 176.24023438 C212.20241211 177.19929688 212.20241211 177.19929688 211.85522461 178.17773438 C210.73620189 180.78878739 209.49947141 183.00412023 208.04272461 185.42773438 C202.87981705 194.71792201 202.37836939 205.82024193 203.54272461 216.24023438 C204.86272461 219.54023438 206.18272461 222.84023437 207.54272461 226.24023438 C64.65272461 226.24023438 -78.23727539 226.24023438 -225.45727539 226.24023438 C-225.45727539 40.24023438 -225.45727539 40.24023438 -220.45727539 34.24023438 C-213.93696402 26.26940018 -210.78518496 17.8324443 -207.45727539 8.24023438 C-206.80233272 6.56892581 -206.14106512 4.89994936 -205.45727539 3.24023438 C-204.86156738 3.36648193 -204.26585937 3.49272949 -203.65209961 3.62280273 C-197.32066087 4.93125091 -190.9893088 5.94634872 -184.58227539 6.80273438 C-183.22682617 6.99125977 -183.22682617 6.99125977 -181.84399414 7.18359375 C-169.4443766 8.86325825 -157.14598112 9.48057461 -144.64477539 9.49023438 C-143.84560699 9.49090912 -143.0464386 9.49158386 -142.22305298 9.49227905 C-112.63469596 9.45334174 -83.24415331 6.15045763 -53.86035156 2.9543457 C-35.84991441 0.99855301 -18.11770677 0.03058486 0 0 Z " fill="#242424" transform="translate(225.457275390625,2973.759765625)"/>
<path d="M0 0 C0.73734375 0.35578125 1.4746875 0.7115625 2.234375 1.078125 C5.31240415 2.58343852 8.14070793 4.09380529 11 6 C11 6.66 11 7.32 11 8 C11.58265625 8.26296875 12.1653125 8.5259375 12.765625 8.796875 C26.32941322 16.10045327 32.56216925 34.11763798 37 48 C38.07259161 51.62172734 39.08435166 55.26053702 40.09960938 58.89868164 C41.69848882 64.42985342 43.92193227 69.41253981 46.66796875 74.484375 C48 77 48 77 48.92578125 79.703125 C50.24345488 82.52055079 51.19660444 82.81691563 54 84 C55.37207196 85.10309152 56.72511626 86.23009953 58.0625 87.375 C70.22900001 97.01183169 86.16858436 97.13987489 101 96 C119.21532784 93.46005639 135.84789077 84.32336412 151.83569336 75.74707031 C157.65545894 72.64626145 163.55713276 69.7860736 169.5625 67.0625 C170.75746094 66.51432617 170.75746094 66.51432617 171.9765625 65.95507812 C189.2811094 58.22725459 209.75729904 55.68343761 228.00390625 61.72265625 C232.44231181 63.61490999 236.21539069 66.03090274 240 69 C240.73992187 69.51433594 241.47984375 70.02867187 242.2421875 70.55859375 C243.11230469 71.27208984 243.11230469 71.27208984 244 72 C244 72.66 244 73.32 244 74 C244.66 74 245.32 74 246 74 C253.10510477 82.39481026 254.60112659 92.5356322 254.34375 103.1953125 C252.86872002 119.52121251 243.76578191 133.10033784 232 144 C221.30678164 152.903741 210.23571516 157.29540781 197 161 C196.14470703 161.24226318 195.28941406 161.48452637 194.40820312 161.73413086 C186.45869533 163.86191294 178.4534286 165.06533999 170.31045532 166.13348389 C167.94047856 166.445332 165.57209999 166.76754377 163.20385742 167.09228516 C155.90757693 168.08986925 148.60838021 169.05392421 141.30078125 169.96484375 C125.7177287 171.95929462 110.96206567 175.19488563 96 180 C95.25395508 180.23412598 94.50791016 180.46825195 93.73925781 180.70947266 C67.17840063 189.20564747 41.97340423 205.57598786 21.70703125 224.6015625 C20 226 20 226 18 226 C18 226.66 18 227.32 18 228 C16.671875 229.3046875 16.671875 229.3046875 14.75 230.875 C5.76310685 238.55760069 -2.14336993 246.64812504 -8.96484375 256.30859375 C-11 259 -11 259 -13.40234375 261.36328125 C-16.56948885 264.57805259 -19.05817553 268.05000402 -21.625 271.75 C-22.140625 272.48718262 -22.65625 273.22436523 -23.1875 273.98388672 C-30.18972965 284.0624008 -36.99325126 294.29352654 -43 305 C-43.66 305 -44.32 305 -45 305 C-45.12375 305.598125 -45.2475 306.19625 -45.375 306.8125 C-46 309 -46 309 -48 312 C-48.66 312 -49.32 312 -50 312 C-50.185625 312.680625 -50.37125 313.36125 -50.5625 314.0625 C-54.35302781 321.80836118 -61.64370231 326.01995954 -69 330 C-69.64195312 330.37640625 -70.28390625 330.7528125 -70.9453125 331.140625 C-76.01576776 333.26134773 -82.3644509 332.88399853 -87.50390625 331.16015625 C-97.29761792 326.10149127 -103.51909205 318.37526439 -107 308 C-108.84706269 301.50131254 -109.35394071 295.29991914 -109.3125 288.5625 C-109.30758545 287.60456543 -109.3026709 286.64663086 -109.29760742 285.65966797 C-109.05688054 270.76916726 -105.92378129 256.99191685 -101 243 C-100.7637793 242.31631348 -100.52755859 241.63262695 -100.28417969 240.92822266 C-95.15216773 226.18141721 -87.96742693 214.03554999 -78.6875 201.53515625 C-57.59012761 173.24830353 -57.59012761 173.24830353 -54 139 C-55.64768115 131.36610064 -58.90080472 123.01747537 -63.6875 116.8125 C-65 115 -65 115 -65 112 C-65.66 112 -66.32 112 -67 112 C-68.1574707 110.47460938 -68.1574707 110.47460938 -69.42578125 108.34375 C-69.89306641 107.56773437 -70.36035156 106.79171875 -70.84179688 105.9921875 C-71.32712891 105.16976562 -71.81246094 104.34734375 -72.3125 103.5 C-73.26654927 101.9060238 -74.22097404 100.3122723 -75.17578125 98.71875 C-75.88033447 97.53309448 -75.88033447 97.53309448 -76.59912109 96.32348633 C-77.92608138 94.12260083 -79.29769507 91.95704721 -80.68359375 89.79296875 C-82.70388659 86.57574769 -84.31519248 83.33895875 -85.75 79.8125 C-86.15734375 78.82894531 -86.5646875 77.84539063 -86.984375 76.83203125 C-91.757757 63.52163914 -90.88717773 44.79189235 -85 32 C-77.73348644 16.65051069 -66.62560981 2.80526941 -50.3359375 -3.39453125 C-33.79987306 -8.42104151 -15.486398 -7.68749253 0 0 Z " fill="#020202" transform="translate(955,2112)"/>
<path d="M0 0 C0.495 0.99 0.495 0.99 1 2 C1.99 2.33 2.98 2.66 4 3 C4 3.66 4 4.32 4 5 C5.65 5.66 7.3 6.32 9 7 C9 7.66 9 8.32 9 9 C9.66 9 10.32 9 11 9 C11 9.66 11 10.32 11 11 C11.99 11.33 12.98 11.66 14 12 C15.51209163 14.1250236 16.86473383 16.20099662 18.1875 18.4375 C18.55552734 19.03626953 18.92355469 19.63503906 19.30273438 20.25195312 C22 24.72070675 22 24.72070675 22 27 C22.66 27 23.32 27 24 27 C24.43699219 28.52753906 24.43699219 28.52753906 24.8828125 30.0859375 C33.24889941 63.76064213 33.24889941 63.76064213 56 88 C74.29251493 96.677925 95.19886818 94.20580911 113.75390625 87.6796875 C124.6433021 83.61370816 135.0193694 78.28505442 145.203125 72.7109375 C146.22212891 72.15575439 146.22212891 72.15575439 147.26171875 71.58935547 C148.55538476 70.88057136 149.84473736 70.16383738 151.12890625 69.43798828 C154.46263046 67.60388558 156.08339469 67 160 67 C160 66.34 160 65.68 160 65 C166.70808661 61.93277715 173.00562216 59.49067966 180.33203125 58.45703125 C183.13090021 58.03955195 183.13090021 58.03955195 186.2578125 56.97265625 C200.10087256 53.37461663 215.47055908 55.86058417 228 62.4375 C237.29042609 68.09777812 243.93252094 75.55898203 246.56640625 86.3125 C247.79386682 93.9205439 247.64014591 101.73959874 245 109 C244.28867244 111.14484263 243.58057275 113.29075737 242.875 115.4375 C242.25146966 117.29216141 241.62696495 119.14649683 241 121 C240.34 121 239.68 121 239 121 C238.86851562 122.06347656 238.86851562 122.06347656 238.734375 123.1484375 C237.84454129 126.60364288 236.35515823 128.75217129 234.25 131.625 C233.57453125 132.56601562 232.8990625 133.50703125 232.203125 134.4765625 C229.96753789 137.03718178 227.96415844 138.39173373 225 140 C224.1646875 140.8353125 224.1646875 140.8353125 223.3125 141.6875 C222.879375 142.120625 222.44625 142.55375 222 143 C221.34 143 220.68 143 220 143 C220 143.66 220 144.32 220 145 C218.31480498 145.941637 216.62671303 146.8780901 214.9375 147.8125 C213.99777344 148.33457031 213.05804687 148.85664062 212.08984375 149.39453125 C192.78941628 159.42294552 171.25251193 162.06626438 150 165 C149.33329285 165.09216797 148.66658569 165.18433594 147.97967529 165.27929688 C142.26715734 166.06754364 136.55320271 166.84524189 130.83935547 167.6237793 C116.43699475 169.60177301 102.76368554 172.27116432 89 177 C88.35595215 177.21495117 87.7119043 177.42990234 87.04833984 177.65136719 C64.39967423 185.26732964 42.62198943 198.09869412 24.21875 213.296875 C22 215 22 215 20 215 C20 215.66 20 216.32 20 217 C16.53846154 220 16.53846154 220 14 220 C14 220.66 14 221.32 14 222 C12.77734375 223.19921875 12.77734375 223.19921875 10.9375 224.6875 C0.89335682 233.26612763 -8.50178973 242.56280697 -16.0703125 253.4140625 C-18.16094794 256.21568327 -20.51913226 258.54373591 -23 261 C-23.556875 261.928125 -24.11375 262.85625 -24.6875 263.8125 C-25.3371875 264.8953125 -25.3371875 264.8953125 -26 266 C-26.66 266 -27.32 266 -28 266 C-28.26683594 266.73347656 -28.53367187 267.46695312 -28.80859375 268.22265625 C-29.98249155 270.95918522 -31.30660561 273.04234382 -33.0625 275.4375 C-35.99542514 279.53505861 -38.78592073 283.69386628 -41.5 287.9375 C-41.88285156 288.53457764 -42.26570312 289.13165527 -42.66015625 289.74682617 C-44.40922258 292.48234509 -46.1400779 295.22655305 -47.84765625 297.98828125 C-56.16933438 311.3901638 -65.52756717 323.84252239 -81 329 C-90.14364754 329.74642021 -95.36477233 328.28403838 -102.5 322.5 C-111.11248791 314.5834707 -115.88083499 303.14012517 -116.43359375 291.51171875 C-116.45715237 289.57045501 -116.45762374 287.62880239 -116.4375 285.6875 C-116.42992676 284.6456958 -116.42235352 283.6038916 -116.41455078 282.53051758 C-115.95353441 260.35293809 -109.69265442 238.37878603 -99 219 C-98.65324219 218.34257813 -98.30648437 217.68515625 -97.94921875 217.0078125 C-93.72817763 209.23514647 -88.55433383 201.86736584 -83 195 C-69.8753566 177.94056252 -58.74707912 161.62020789 -60.18359375 139.125 C-61.68391581 128.48354043 -67.16347924 119.17764208 -72.5625 110.0625 C-72.92609619 109.44793945 -73.28969238 108.83337891 -73.66430664 108.20019531 C-75.48781482 105.20446107 -77.3951841 102.43931826 -79.6640625 99.76171875 C-82.31368966 96.6291328 -85 93.25410613 -85 89 C-85.66 89 -86.32 89 -87 89 C-88.74547256 85.36598335 -90.38774871 81.69493284 -92 78 C-92.40347656 77.13246094 -92.80695312 76.26492188 -93.22265625 75.37109375 C-98.94581062 61.27859537 -97.54190366 42.90056878 -91.75 29 C-88.03081902 20.43065903 -82.82389796 12.45456327 -76 6 C-75.34 6 -74.68 6 -74 6 C-74 5.34 -74 4.68 -74 4 C-73.34 4 -72.68 4 -72 4 C-72 3.34 -72 2.68 -72 2 C-50.7265272 -12.71415202 -22.28132958 -13.46163662 0 0 Z " fill="#050505" transform="translate(962,615)"/>
<path d="M0 0 C3.0331603 0.01077934 6.06573357 -0.0000176 9.09887695 -0.01269531 C26.3731509 -0.02672392 43.54425856 0.76927254 60.39770508 4.82324219 C61.36643555 5.04431641 62.33516602 5.26539063 63.33325195 5.49316406 C67.17831959 6.3751581 71.00799291 7.30393915 74.83520508 8.26074219 C74.83520508 31.03074219 74.83520508 53.80074219 74.83520508 77.26074219 C71.86520508 75.94074219 68.89520508 74.62074219 65.83520508 73.26074219 C64.19551758 72.79667969 64.19551758 72.79667969 62.52270508 72.32324219 C59.2050237 71.36730009 56.24766976 70.19079448 53.08520508 68.82324219 C47.40361508 66.42730658 41.83550561 64.65936296 35.83520508 63.26074219 C35.13975586 63.09687012 34.44430664 62.93299805 33.7277832 62.76416016 C23.43552368 60.36914702 13.43274198 58.57396988 2.83520508 58.26074219 C1.89161133 58.20917969 0.94801758 58.15761719 -0.02416992 58.10449219 C-20.42325704 57.42827935 -39.00752015 63.52279973 -56.41479492 73.69824219 C-59.16479492 75.26074219 -59.16479492 75.26074219 -61.16479492 75.26074219 C-61.16479492 75.92074219 -61.16479492 76.58074219 -61.16479492 77.26074219 C-61.99495117 77.64101562 -62.82510742 78.02128906 -63.68041992 78.41308594 C-67.72246761 80.55645876 -71.25805639 83.08966849 -74.91479492 85.82324219 C-75.58639648 86.31759766 -76.25799805 86.81195312 -76.94995117 87.32128906 C-79.50353371 89.21216832 -81.91441794 91.0103652 -84.16479492 93.26074219 C-90.73227482 93.82690425 -96.8262339 92.71196004 -103.2277832 91.32836914 C-108.93387235 90.13812896 -114.52665243 89.38136136 -120.16479492 91.26074219 C-139.36229382 92.66084028 -154.17890939 83.13159664 -170.34863281 74.06347656 C-175.73323019 71.04422881 -181.14968941 68.09290754 -186.60229492 65.19824219 C-187.31828857 64.81611572 -188.03428223 64.43398926 -188.77197266 64.0402832 C-191.54415061 62.57471549 -194.18414788 61.2542912 -197.16479492 60.26074219 C-197.16479492 59.60074219 -197.16479492 58.94074219 -197.16479492 58.26074219 C-198.41196289 58.10412109 -198.41196289 58.10412109 -199.68432617 57.94433594 C-203.61525236 57.17226851 -207.15474875 55.81312532 -210.85229492 54.32324219 C-217.21347132 51.83619891 -223.35588801 50.0974299 -230.16479492 49.26074219 C-228.68981313 46.01429986 -226.82816873 43.41459926 -224.60229492 40.63574219 C-222.14513682 37.60008216 -222.14513682 37.60008216 -220.16479492 34.26074219 C-219.50479492 34.26074219 -218.84479492 34.26074219 -218.16479492 34.26074219 C-218.08229492 33.74511719 -217.99979492 33.22949219 -217.91479492 32.69824219 C-217.07030019 29.9536343 -215.72242137 27.70125458 -214.27026367 25.23730469 C-210.55591778 18.59610674 -207.93909533 11.32930545 -205.16479492 4.26074219 C-203.49751008 4.37720694 -201.83097692 4.5044398 -200.16479492 4.63574219 C-199.23666992 4.70535156 -198.30854492 4.77496094 -197.35229492 4.84667969 C-194.16479492 5.26074219 -194.16479492 5.26074219 -190.56005859 6.21728516 C-185.95398484 7.38534514 -181.37895459 7.93560169 -176.65307617 8.37011719 C-175.29343498 8.49625397 -175.29343498 8.49625397 -173.90632629 8.62493896 C-164.07174112 9.46125515 -154.25597617 9.56271682 -144.39111328 9.52148438 C-141.36429661 9.51078461 -138.338078 9.52144867 -135.3112793 9.53417969 C-121.17320465 9.54561098 -107.2285619 8.66704728 -93.16479492 7.26074219 C-92.17506683 7.16216919 -91.18533875 7.06359619 -90.1656189 6.96203613 C-83.16220902 6.25732812 -76.16316328 5.5136591 -69.16479492 4.76074219 C-61.16743523 3.90034916 -53.16873024 3.05790245 -45.16479492 2.26074219 C-44.17579193 2.16184692 -43.18678894 2.06295166 -42.16781616 1.96105957 C-28.09359759 0.58441302 -14.14105708 -0.05947868 0 0 Z " fill="#353535" transform="translate(1725.164794921875,1473.7392578125)"/>
<path d="M0 0 C2.5078125 2.1875 2.5078125 2.1875 5.125 5 C9.55283996 9.63793645 14.19031015 13.724718 19.21484375 17.72265625 C23.22254142 20.99963765 26.99471087 24.50727782 30.78515625 28.03125 C32.83679121 30.02671788 32.83679121 30.02671788 35 31 C35 31.66 35 32.32 35 33 C35.928125 33.37125 35.928125 33.37125 36.875 33.75 C39.35068687 35.20628639 39.95125002 36.37812506 41 39 C41.66 39 42.32 39 43 39 C44.5078125 40.6796875 44.5078125 40.6796875 46.125 42.875 C46.66382813 43.59429688 47.20265625 44.31359375 47.7578125 45.0546875 C49 47 49 47 49 49 C49.66 49 50.32 49 51 49 C60.9635202 66.45820354 70.38214315 84.57972579 64.875 105.3125 C63.13517502 110.33218643 60.48588206 114.98006916 57 119 C56.34 119 55.68 119 55 119 C55 119.66 55 120.32 55 121 C53.390625 122.40234375 53.390625 122.40234375 51.25 123.9375 C50.55390625 124.44152344 49.8578125 124.94554687 49.140625 125.46484375 C48.43421875 125.97144531 47.7278125 126.47804688 47 127 C46.37996094 127.515625 45.75992187 128.03125 45.12109375 128.5625 C42.45523457 130.36919646 39.89843597 131.1518355 36.8125 132.0625 C35.74644531 132.38347656 34.68039062 132.70445312 33.58203125 133.03515625 C32.39996094 133.35355469 31.21789063 133.67195312 30 134 C28.75444336 134.34281006 27.50888672 134.68562012 26.22558594 135.03881836 C20.17303251 136.36346932 14.11740003 136.31246245 7.94415092 136.33552551 C5.75874621 136.34394197 3.57373472 136.36456491 1.38844299 136.38806152 C-3.26181134 136.43594783 -7.9121064 136.46902389 -12.5625 136.5 C-17.93646973 136.53600485 -23.31024753 136.57850219 -28.68403435 136.63594055 C-30.80619557 136.6555772 -32.92819861 136.6642412 -35.0504303 136.67224121 C-47.26917399 136.76748185 -59.71565141 137.47197713 -71.375 141.375 C-72.03218018 141.59196533 -72.68936035 141.80893066 -73.36645508 142.0324707 C-78.66603183 143.80897053 -83.8546877 145.82203971 -89 148 C-90.66553019 148.66950085 -92.33192677 149.33686056 -94 150 C-93.08425038 133.61123957 -89.39238004 117.81005186 -85.4375 101.9375 C-85.03399834 100.30025504 -84.63100192 98.66288549 -84.22851562 97.02539062 C-83.49060505 94.02779814 -82.75034839 91.03081703 -82.00561523 88.03491211 C-81.83981964 87.36699142 -81.67402405 86.69907074 -81.50320435 86.01091003 C-81.16173898 84.64634285 -80.81594963 83.28285181 -80.46627808 81.92036438 C-77.59050546 70.65996887 -76.67753217 59.78839203 -76.75 48.1875 C-76.74226563 46.93001953 -76.73453125 45.67253906 -76.7265625 44.37695312 C-76.7402004 37.90235953 -77.04405986 32.18604878 -79 26 C-78.3601416 25.82573486 -77.7202832 25.65146973 -77.06103516 25.47192383 C-62.46375879 21.44398065 -48.25502066 16.8003892 -34.125 11.375 C-33.41514954 11.10386383 -32.70529907 10.83272766 -31.97393799 10.55337524 C-23.69792545 7.38143488 -15.6699617 4.01742145 -7.76513672 -0.00927734 C-4.61186598 -1.13906479 -3.13739374 -1.08787024 0 0 Z " fill="#373737" transform="translate(1359,479)"/>
<path d="M0 0 C1.640625 1.3828125 1.640625 1.3828125 3.25 3.125 C6.96629091 7.007692 10.93090219 10.49455331 15 14 C17.11324178 15.87098302 19.22592913 17.74255855 21.3359375 19.6171875 C22.96409558 21.07691822 22.96409558 21.07691822 25 22 C25 22.66 25 23.32 25 24 C25.57524414 24.25072266 26.15048828 24.50144531 26.74316406 24.75976562 C29.30441196 26.16728827 31.04057392 27.78170025 33.109375 29.84375 C34.24052734 30.97103516 34.24052734 30.97103516 35.39453125 32.12109375 C36.17183594 32.90613281 36.94914062 33.69117188 37.75 34.5 C38.54277344 35.28503906 39.33554688 36.07007813 40.15234375 36.87890625 C40.90128906 37.63042969 41.65023438 38.38195313 42.421875 39.15625 C43.10862305 39.84525391 43.79537109 40.53425781 44.50292969 41.24414062 C46 43 46 43 46 45 C46.66 45 47.32 45 48 45 C50.61171168 48.4800385 52.76834709 52.26815453 55 56 C55.54527344 56.89847656 56.09054687 57.79695313 56.65234375 58.72265625 C64.18270242 71.73312326 68.45258524 87.28364996 65.31640625 102.265625 C63.31614294 108.73950625 60.52651182 114.8785752 56 120 C55.34 120 54.68 120 54 120 C53.7628125 120.598125 53.525625 121.19625 53.28125 121.8125 C49.44044077 128.36997918 38.96542761 131.77460658 32 134 C22.90400646 136.09585922 13.85243692 136.32220946 4.55859375 136.37890625 C3.09992929 136.39513806 1.64127516 136.41232365 0.18263245 136.43040466 C-3.62534742 136.47566236 -7.43334268 136.51067416 -11.24145508 136.54260254 C-17.3368897 136.59485645 -23.43216922 136.66042875 -29.52741814 136.73081779 C-31.63370796 136.75329064 -33.73997941 136.76978847 -35.84632874 136.78553772 C-46.89942027 136.90007243 -57.26529192 137.47347784 -67.9375 140.4375 C-68.76056641 140.65470703 -69.58363281 140.87191406 -70.43164062 141.09570312 C-74.84694593 142.25436656 -74.84694593 142.25436656 -79.01000977 144.07836914 C-81 145 -81 145 -85 145 C-85 145.66 -85 146.32 -85 147 C-87.97990339 148.24162641 -90.8614943 149.25561083 -94 150 C-94.34405218 142.28340108 -93.06208854 135.38955412 -91.375 127.875 C-91.10647217 126.64740967 -90.83794434 125.41981934 -90.5612793 124.1550293 C-88.60966756 115.367379 -86.39008469 106.66964906 -84.04931641 97.97900391 C-82.03400305 90.39976082 -80.53277438 82.82627366 -79.34887695 75.07397461 C-79.09606233 73.57106333 -78.80279948 72.07477516 -78.48510742 70.58422852 C-76.87706599 62.83302747 -76.73413604 55.33576208 -76.8125 47.4375 C-76.8134668 45.53387695 -76.8134668 45.53387695 -76.81445312 43.59179688 C-76.5259409 37.61598437 -76.5259409 37.61598437 -78 32 C-78.039992 30.00039988 -78.04346799 27.99952758 -78 26 C-77.39043457 25.82573486 -76.78086914 25.65146973 -76.15283203 25.47192383 C-61.93770848 21.36116307 -48.05684778 16.68275544 -34.25 11.375 C-33.54264709 11.10386383 -32.83529419 10.83272766 -32.10650635 10.55337524 C-22.99228601 7.0574347 -22.99228601 7.0574347 -14.01367188 3.23144531 C-13.37701599 2.94766022 -12.74036011 2.66387512 -12.08441162 2.37149048 C-10.34521313 1.58893436 -8.61324762 0.79035948 -6.88183594 -0.00927734 C-3.93363034 -1.02281668 -2.81199471 -1.22323373 0 0 Z " fill="#343434" transform="translate(1359,1979)"/>
<path d="M0 0 C4.29 0 8.58 0 13 0 C10.98888806 4.02222388 9.59551067 5.48314253 6 8 C5.34 8 4.68 8 4 8 C4 8.66 4 9.32 4 10 C2.35546875 11.69140625 2.35546875 11.69140625 0.1875 13.5625 C-0.52019531 14.18253906 -1.22789063 14.80257812 -1.95703125 15.44140625 C-4 17 -4 17 -7 18 C-7.37125 19.0209375 -7.37125 19.0209375 -7.75 20.0625 C-8.98813047 22.9721066 -10.03691709 24.2054919 -12.1875 26.4375 C-22.29052947 37.74276889 -27.00145039 53.75727381 -26.27734375 68.84765625 C-24.29458479 84.23498279 -17.05755822 96.40738481 -6 107 C-5.34 107.33 -4.68 107.66 -4 108 C-4 108.66 -4 109.32 -4 110 C-3.21625 110.20625 -2.4325 110.4125 -1.625 110.625 C1.4915589 111.80714303 3.67858105 113.02081474 6.4375 114.8125 C16.29543579 120.87550111 27.60709869 123.57853932 39 125 C38.27554687 125.70898438 37.55109375 126.41796875 36.8046875 127.1484375 C29.04097223 135.04190845 22.72176256 143.54598262 17 153 C14.82551613 156.36056597 12.5636844 159.58034043 10.125 162.75 C7.18405349 166.60673492 4.76852542 170.67364346 2.39453125 174.8984375 C1 177 1 177 -2 179 C-2.25136719 178.11957031 -2.50273438 177.23914062 -2.76171875 176.33203125 C-3.03701416 175.37031006 -3.03701416 175.37031006 -3.31787109 174.38916016 C-3.82560604 172.61081576 -4.3307245 170.83172393 -4.83447266 169.05224609 C-5.81708548 165.59437257 -6.81426784 162.1408945 -7.8125 158.6875 C-8.3084668 156.92889648 -8.3084668 156.92889648 -8.81445312 155.13476562 C-10.65473261 148.80858413 -12.72870066 142.99163462 -15.86425781 137.18847656 C-17.07085986 134.8634592 -18.01585848 132.51299116 -18.9375 130.0625 C-22.32017111 121.43869421 -27.15887713 113.61659794 -32 105.75 C-32.40299316 105.0885498 -32.80598633 104.42709961 -33.22119141 103.74560547 C-36.10573273 99.12408623 -39.36873372 95.05343382 -43 91 C-48 85.3065153 -48 85.3065153 -48 83 C-49.485 82.505 -49.485 82.505 -51 82 C-52.6875 80.5625 -52.6875 80.5625 -54 79 C-54 78.34 -54 77.68 -54 77 C-54.55300781 76.76796875 -55.10601563 76.5359375 -55.67578125 76.296875 C-58.61728152 74.65556728 -60.74901859 72.57236325 -63.1875 70.25 C-78.6658087 55.93409393 -98.65230084 46.98385409 -119 42 C-119 41.34 -119 40.68 -119 40 C-116.98828125 38.59765625 -116.98828125 38.59765625 -114.3125 37.0625 C-113.44238281 36.55847656 -112.57226562 36.05445313 -111.67578125 35.53515625 C-110.79277344 35.02855469 -109.90976563 34.52195312 -109 34 C-108.13117188 33.47019531 -107.26234375 32.94039062 -106.3671875 32.39453125 C-103.98672272 30.99217823 -101.55582505 29.93391431 -99.0078125 28.875 C-96.69309708 27.86625243 -94.44448258 26.75702888 -92.1875 25.625 C-91.33027344 25.19574219 -90.47304687 24.76648438 -89.58984375 24.32421875 C-87.92517159 23.47305154 -86.2703736 22.60213124 -84.62890625 21.70703125 C-78.89566215 18.64741823 -73.2120138 16.74976065 -66.93383789 15.09057617 C-63.11242259 14.05765407 -59.3717915 12.82114671 -55.61328125 11.578125 C-47.8338695 9.09005604 -40.02796044 7.46288744 -31.98071289 6.11425781 C-29.80044594 5.74797493 -27.62395098 5.36350713 -25.44726562 4.9765625 C-16.98049972 3.50022143 -8.59326216 2.46565851 0 2 C0 1.34 0 0.68 0 0 Z " fill="#363636" transform="translate(1249,889)"/>
<path d="M0 0 C-1.28519565 2.86697492 -2.57129254 4.97607712 -5 7 C-5.66 7 -6.32 7 -7 7 C-7 7.66 -7 8.32 -7 9 C-7.66 9 -8.32 9 -9 9 C-9 9.66 -9 10.32 -9 11 C-9.61875 11.0825 -10.2375 11.165 -10.875 11.25 C-13.15354435 11.79278299 -13.15354435 11.79278299 -14.0625 13.875 C-14.5265625 14.926875 -14.5265625 14.926875 -15 16 C-16.5 17.75 -16.5 17.75 -18 19 C-18.66 19 -19.32 19 -20 19 C-20.28875 19.5775 -20.5775 20.155 -20.875 20.75 C-21.431875 21.86375 -21.431875 21.86375 -22 23 C-22.28875 23.66 -22.5775 24.32 -22.875 25 C-24 27 -24 27 -25.84765625 28.7265625 C-35.48854496 38.90986056 -38.71600814 55.09472061 -38.3515625 68.62890625 C-37.3717546 78.02417532 -35.18419235 86.70582441 -29 94 C-28.505 94.86625 -28.01 95.7325 -27.5 96.625 C-25.99278908 99.20452795 -25.99278908 99.20452795 -23.3125 101.6875 C-21 104 -21 104 -21 106 C-20.4225 106.28875 -19.845 106.5775 -19.25 106.875 C-17.16666667 107.91666667 -15.08333333 108.95833333 -13 110 C-13 110.66 -13 111.32 -13 112 C-12.01 112.37125 -12.01 112.37125 -11 112.75 C-8 114 -8 114 -4.625 115.8125 C4.25431603 120.31112881 14.26263156 123.12085872 24 125 C23.1875 127.4375 23.1875 127.4375 22 130 C21.01 130.33 20.02 130.66 19 131 C17.95243473 132.7804647 17.95243473 132.7804647 17 135 C15.89732403 136.84684645 14.77040993 138.67934841 13.625 140.5 C13.03976562 141.4384375 12.45453125 142.376875 11.8515625 143.34375 C10.08785433 145.87396426 8.19578644 147.84976929 6 150 C5.07181174 151.59117987 4.14893039 153.18603251 3.26953125 154.8046875 C1.01226257 158.70802595 -1.57185856 162.39986774 -4.09765625 166.1328125 C-5.81127683 168.71555892 -7.40778538 171.34181118 -9 174 C-11.0625 176.8125 -11.0625 176.8125 -13 179 C-13.66 179 -14.32 179 -15 179 C-15.13051758 178.39639648 -15.26103516 177.79279297 -15.39550781 177.17089844 C-20.4857553 153.78785263 -28.090526 133.20827243 -39.80078125 112.27734375 C-41 110 -41 110 -42 107 C-42.66 107 -43.32 107 -44 107 C-44.495 105.824375 -44.495 105.824375 -45 104.625 C-49.70788633 95.25322627 -58.18085185 86.48367619 -65.76171875 79.33984375 C-67 78 -67 78 -67 76 C-67.556875 75.7525 -68.11375 75.505 -68.6875 75.25 C-71.42410913 73.77075182 -73.67650869 72.06532561 -76 70 C-76 69.34 -76 68.68 -76 68 C-76.5465625 67.74605469 -77.093125 67.49210937 -77.65625 67.23046875 C-80.42181901 65.77854502 -82.9218496 64.07631526 -85.5 62.3125 C-99.45093215 52.97246915 -113.43671649 45.45826799 -130 42 C-130 41.01 -130 40.02 -130 39 C-127.95895429 37.89468593 -125.91713464 36.79080093 -123.875 35.6875 C-122.73804688 35.07261719 -121.60109375 34.45773438 -120.4296875 33.82421875 C-117.30891148 32.16430713 -114.16712344 30.56914698 -111 29 C-109.87722656 28.4328125 -108.75445313 27.865625 -107.59765625 27.28125 C-106.43105469 26.6934375 -105.26445313 26.105625 -104.0625 25.5 C-102.89847656 24.9121875 -101.73445313 24.324375 -100.53515625 23.71875 C-95.04188419 21.04798789 -89.61323907 18.77874963 -83.75 17.0625 C-79.75768859 15.870226 -75.87402599 14.59237014 -72 13.0625 C-53.52516504 6.24184872 -33.37049491 3.6300146 -13.87231445 1.64575195 C-9.23003664 1.17139381 -4.65121627 0 0 0 Z " fill="#333333" transform="translate(1261,2389)"/>
<path d="M0 0 C3.93305259 2.0611187 7.33842626 4.51864705 10.8359375 7.2421875 C11.54041016 7.78343262 12.24488281 8.32467773 12.97070312 8.88232422 C14.37453635 9.96350742 15.77565503 11.04822584 17.17382812 12.13671875 C18.79126944 13.38903797 20.42870169 14.61547292 22.0703125 15.8359375 C32.64592206 23.84975344 41.01325655 34.55829345 44.0859375 47.6171875 C44.39764202 50.58113278 44.46721969 53.51317468 44.4609375 56.4921875 C44.45932617 57.2872168 44.45771484 58.08224609 44.45605469 58.90136719 C44.33039099 64.90612065 43.38149837 69.50849798 40.0859375 74.6171875 C39.4878125 75.6896875 38.8896875 76.7621875 38.2734375 77.8671875 C33.67019957 83.65411518 28.40230387 86.64610615 21.0859375 87.6171875 C8.63605289 89.00763853 -2.27143166 83.74315222 -13.015625 78.10546875 C-15.86774447 76.54816646 -15.86774447 76.54816646 -18.9140625 75.6171875 C-18.9140625 74.9571875 -18.9140625 74.2971875 -18.9140625 73.6171875 C-19.59855469 73.51277344 -20.28304687 73.40835938 -20.98828125 73.30078125 C-24.46918523 72.48748593 -27.46859249 71.14882723 -30.7265625 69.6796875 C-39.48141263 65.84115321 -47.37941934 64.28321037 -56.9140625 63.6171875 C-55.67716675 58.39473877 -53.05993572 54.72089157 -49.96484375 50.453125 C-47.75902924 47.40279865 -45.65177695 44.29510881 -43.5390625 41.1796875 C-39.34961165 35.08626957 -35.00771089 28.99082502 -29.9140625 23.6171875 C-29.2540625 23.6171875 -28.5940625 23.6171875 -27.9140625 23.6171875 C-27.6871875 23.0603125 -27.4603125 22.5034375 -27.2265625 21.9296875 C-25.53856214 18.95559162 -23.44729733 16.89709885 -20.9140625 14.6171875 C-20.2540625 14.6171875 -19.5940625 14.6171875 -18.9140625 14.6171875 C-18.2540625 13.2971875 -17.5940625 11.9771875 -16.9140625 10.6171875 C-16.2540625 10.6171875 -15.5940625 10.6171875 -14.9140625 10.6171875 C-14.9140625 9.9571875 -14.9140625 9.2971875 -14.9140625 8.6171875 C-13.07715391 6.91700674 -11.26229291 5.39259257 -9.2890625 3.8671875 C-8.76699219 3.43019531 -8.24492187 2.99320313 -7.70703125 2.54296875 C-4.95879954 0.41902671 -3.49185192 -0.45871513 0 0 Z " fill="#363636" transform="translate(426.9140625,928.3828125)"/>
<path d="M0 0 C3.96442623 1.23080814 7.31791689 3.29191 10.8125 5.5 C11.78832031 6.1084375 12.76414062 6.716875 13.76953125 7.34375 C14.50558594 7.8903125 15.24164063 8.436875 16 9 C16 9.66 16 10.32 16 11 C16.72574219 11.2578125 17.45148438 11.515625 18.19921875 11.78125 C21.12047667 13.05242499 23.30872649 14.54016402 25.8125 16.5 C26.60269531 17.1084375 27.39289063 17.716875 28.20703125 18.34375 C28.79871094 18.8903125 29.39039063 19.436875 30 20 C30 20.66 30 21.32 30 22 C30.66 22 31.32 22 32 22 C42.9488754 34.51914633 47.86421794 46.19626942 47.17041016 62.84765625 C46.46517952 71.75498186 41.27410669 78.02220636 35 84 C28.48899554 88.34066964 20.87632531 88.84589317 13.3203125 87.53515625 C2.89840199 85.19921079 -6.78000604 81.07037571 -15.875 75.5 C-27.94693945 68.27925107 -40.06551399 65.07473429 -54 64 C-52.53086853 58.24209965 -49.52162076 54.14700448 -46.0625 49.4375 C-44.98931201 47.95817141 -43.91765442 46.47773117 -42.84765625 44.99609375 C-42.34766113 44.30757324 -41.84766602 43.61905273 -41.33251953 42.90966797 C-39.86087332 40.85760564 -39.86087332 40.85760564 -38.24609375 37.97265625 C-37.83488281 37.32167969 -37.42367188 36.67070312 -37 36 C-36.34 36 -35.68 36 -35 36 C-34.690625 35.38125 -34.38125 34.7625 -34.0625 34.125 C-33.375 32.75 -32.6875 31.375 -32 30 C-31.34 30 -30.68 30 -30 30 C-29.78214844 29.46503906 -29.56429688 28.93007812 -29.33984375 28.37890625 C-27.52439104 25.15555145 -25.08153143 22.61417616 -22.5625 19.9375 C-22.07201172 19.40833984 -21.58152344 18.87917969 -21.07617188 18.33398438 C-19.72577647 16.8815348 -18.3633335 15.44031222 -17 14 C-16.43152344 13.38253906 -15.86304688 12.76507812 -15.27734375 12.12890625 C-14 11 -14 11 -12 11 C-12 10.34 -12 9.68 -12 9 C-9.4385343 6.70351351 -8.52032428 6 -5 6 C-4.67 5.01 -4.34 4.02 -4 3 C-2.25 1.1875 -2.25 1.1875 0 0 Z " fill="#333333" transform="translate(424,2428)"/>
<path d="M0 0 C-2.26733446 9.36117297 -5.31825041 18.12050022 -9.49609375 26.80078125 C-10.9586449 29.91202643 -12.23961736 33.0524376 -13.5 36.25 C-15.38959504 40.87036466 -17.64190082 44.83072816 -20.5703125 48.8671875 C-22.11586017 51.06243828 -22.11586017 51.06243828 -23.3984375 53.921875 C-30.41963575 67.41627554 -44.99633172 77.02673463 -59 82 C-69.05824215 84.35598465 -78.02224325 84.53403346 -88 82 C-88 81.34 -88 80.68 -88 80 C-88.99 80 -89.98 80 -91 80 C-91 79.34 -91 78.68 -91 78 C-91.928125 77.814375 -91.928125 77.814375 -92.875 77.625 C-95 77 -95 77 -97 75 C-97.639375 74.87625 -98.27875 74.7525 -98.9375 74.625 C-101.71598829 73.78303385 -102.52187022 72.43891413 -104 70 C-104 69.34 -104 68.68 -104 68 C-104.99 67.67 -105.98 67.34 -107 67 C-104.09181675 60.85347744 -100.69930341 55.30299174 -96.875 49.6875 C-96.06869141 48.49157227 -96.06869141 48.49157227 -95.24609375 47.27148438 C-94.25458545 45.80153005 -93.26117163 44.33285769 -92.26513672 42.8659668 C-91.16897684 41.24922617 -90.08350098 39.62525148 -89 38 C-88.34 38 -87.68 38 -87 38 C-86.690625 37.38125 -86.38125 36.7625 -86.0625 36.125 C-85.375 34.75 -84.6875 33.375 -84 32 C-83.34 32 -82.68 32 -82 32 C-81.731875 31.4225 -81.46375 30.845 -81.1875 30.25 C-79.97070811 27.94449957 -78.69666121 25.97943808 -77 24 C-76.34 24 -75.68 24 -75 24 C-75 23.34 -75 22.68 -75 22 C-74.34 22 -73.68 22 -73 22 C-73 21.34 -73 20.68 -73 20 C-72.071875 19.87625 -72.071875 19.87625 -71.125 19.75 C-70.42375 19.5025 -69.7225 19.255 -69 19 C-68.71125 18.3915625 -68.4225 17.783125 -68.125 17.15625 C-63.68660841 8.64933278 -47.95562422 2.29874472 -39.05566406 -0.64257812 C-26.12210324 -4.2615714 -12.69337246 -4.43344402 0 0 Z " fill="#373737" transform="translate(671,376)"/>
<path d="M0 0 C-0.67834864 4.29893234 -2.15109809 8.1297726 -3.8125 12.125 C-5.68458001 16.69902235 -7.48739586 21.27261171 -9.125 25.9375 C-10.75483727 30.4956341 -12.74322659 34.72450945 -15 39 C-15.45375 39.94875 -15.9075 40.8975 -16.375 41.875 C-20.12938338 49.09496804 -24.26368443 55.58330389 -29.5 61.8125 C-29.95052734 62.35140869 -30.40105469 62.89031738 -30.86523438 63.44555664 C-34.82772434 68.05345216 -39.15633684 72.23302838 -44.5625 75.125 C-47.86761248 76.85737297 -47.86761248 76.85737297 -50.3125 78.5625 C-61.51829091 84.55629514 -74.86642785 85.32282459 -87 82 C-90.60357483 80.32813739 -93.78809201 78.32833479 -97 76 C-98.03125 75.2575 -99.0625 74.515 -100.125 73.75 C-100.74375 73.1725 -101.3625 72.595 -102 72 C-102 71.34 -102 70.68 -102 70 C-102.66 70 -103.32 70 -104 70 C-105.2578125 67.4609375 -105.2578125 67.4609375 -106 64 C-104.75976602 61.21718644 -103.57596107 59.09912519 -101.875 56.625 C-101.20114258 55.60019531 -101.20114258 55.60019531 -100.51367188 54.5546875 C-96.988216 49.26891509 -93.27238076 44.1116739 -89.5 39 C-88.98421387 38.29955566 -88.46842773 37.59911133 -87.93701172 36.87744141 C-86.67608391 35.21144002 -85.34427028 33.59951147 -84 32 C-83.34 32 -82.68 32 -82 32 C-81.77054688 31.44699219 -81.54109375 30.89398437 -81.3046875 30.32421875 C-73.25943425 15.99210592 -54.36708471 4.34087464 -39.04833984 -0.63378906 C-25.85142408 -4.29454271 -13.01833113 -4.00564035 0 0 Z " fill="#343434" transform="translate(671,1876)"/>
<path d="M0 0 C3.24881795 0.52400289 6.22196333 1.4038754 9.3125 2.5 C13.56200561 3.96165881 17.53108804 4.59373528 22 5 C20.93247597 7.40192906 19.81754977 9.21894027 18.125 11.25 C12.56865444 18.44056484 10.91638054 25.08067047 10.7890625 34.1015625 C10.76096909 35.49350084 10.7323045 36.88542775 10.703125 38.27734375 C10.66215262 40.44253909 10.62521449 42.60752688 10.59863281 44.77294922 C10.41344972 58.69680244 8.84630485 70.15179688 -0.5625 80.9375 C-2.85318367 82.8757708 -4.06339838 83.67371093 -7 84 C-7 84.66 -7 85.32 -7 86 C-8.5390625 87.18359375 -8.5390625 87.18359375 -10.625 88.4375 C-11.29789062 88.84871094 -11.97078125 89.25992187 -12.6640625 89.68359375 C-27.90495301 98.27252369 -45.1114364 98.84579773 -61.76733398 94.33520508 C-80.37606512 88.84632548 -96.50949234 77.33338492 -112 66 C-111.67 64.68 -111.34 63.36 -111 62 C-110.34 62.33 -109.68 62.66 -109 63 C-106.50146246 62.96165173 -104.05239306 62.85932485 -101.5625 62.6875 C-100.83530762 62.63827393 -100.10811523 62.58904785 -99.35888672 62.53833008 C-93.4643704 62.10201326 -87.77769222 61.25828606 -82 60 C-80.59377277 59.706922 -79.18752067 59.41396328 -77.78125 59.12109375 C-55.88579199 54.48435381 -32.29062897 47.99841956 -16.34375 31.26171875 C-15 30 -15 30 -13 30 C-12.896875 29.236875 -12.79375 28.47375 -12.6875 27.6875 C-11.91968177 24.68602875 -11.1342744 24.10792534 -9 22 C-4.90052687 15.20271183 -2.44010885 7.50802723 0 0 Z " fill="#353535" transform="translate(437,1266)"/>
<path d="M0 0 C0.56847656 0.19335938 1.13695312 0.38671875 1.72265625 0.5859375 C9.48958294 3.2051682 16.81315034 5.29455717 25 6 C24.34 6.99 23.68 7.98 23 9 C22.01 9 21.02 9 20 9 C19.731875 9.5775 19.46375 10.155 19.1875 10.75 C18 13 18 13 16.52954102 14.87426758 C10.38153418 23.41867229 11.5559886 34.87138382 11.56420898 44.89672852 C11.53853586 59.43627272 9.2423338 72.02240685 -1 83 C-4.48016844 86.00905393 -8.10202708 88.56304508 -12 91 C-12.63292969 91.42023437 -13.26585937 91.84046875 -13.91796875 92.2734375 C-26.27710847 99.53068069 -44.11913409 99.5106642 -57.68115234 96.38134766 C-69.22614585 93.2731594 -79.19847974 88.85843643 -89 82 C-91.06168137 80.64458731 -93.12417733 79.29041284 -95.1875 77.9375 C-100.50688701 74.36054868 -105.76831318 70.70384908 -111 67 C-107.03933181 64.50189661 -102.72950032 64.23130505 -98.1875 63.625 C-96.3942296 63.36929416 -94.6012717 63.11138936 -92.80859375 62.8515625 C-91.86612793 62.71524414 -90.92366211 62.57892578 -89.95263672 62.43847656 C-84.87502101 61.68443342 -79.81157527 60.8544506 -74.75 60 C-73.79891357 59.84611816 -72.84782715 59.69223633 -71.86791992 59.53369141 C-66.94994644 58.6936446 -62.43751498 57.60330555 -57.81005859 55.73193359 C-55.06629718 54.62243849 -52.24457846 53.74819282 -49.4375 52.8125 C-34.42073084 47.42639971 -21.05208608 39.64617282 -11 27 C-10.34 27 -9.68 27 -9 27 C-8.731875 26.113125 -8.46375 25.22625 -8.1875 24.3125 C-7 21 -7 21 -5.5625 18.671875 C-3.89236758 15.81594856 -2.84818804 13.07630936 -1.8125 9.9375 C-1.29623047 8.40416016 -1.29623047 8.40416016 -0.76953125 6.83984375 C0.17436288 3.8469156 0.17436288 3.8469156 0 0 Z " fill="#323232" transform="translate(436,2765)"/>
<path d="M0 0 C5.14535962 -0.21001468 9.08664796 0.55798099 14 2 C16.16140886 2.4627769 18.32862051 2.8990247 20.5 3.3125 C31.03643882 5.37097848 41.51469 7.69741335 52 10 C52 10.66 52 11.32 52 12 C52.94875 11.938125 53.8975 11.87625 54.875 11.8125 C58.00898496 11.81171836 60.5697333 12.36788326 63.55078125 13.3203125 C67.22278807 14.46191271 70.89940657 15.53761465 74.61328125 16.53515625 C75.55107422 16.78716797 76.48886719 17.03917969 77.45507812 17.29882812 C79.37923 17.81307514 81.3037164 18.32607194 83.22851562 18.83789062 C84.15986328 19.08861328 85.09121094 19.33933594 86.05078125 19.59765625 C86.88262939 19.81945557 87.71447754 20.04125488 88.5715332 20.26977539 C91.1194859 21.03592865 93.53648073 21.99840279 96 23 C97.74209531 23.46798523 99.4931431 23.90340332 101.25 24.3125 C104.83536549 25.17491392 108.37710389 26.09477942 111.89453125 27.19921875 C130.62003837 33.07249175 148.51076599 35.9666404 167.84765625 31.65625 C171 31 171 31 174 31 C174 31.66 174 32.32 174 33 C174.556875 33.20625 175.11375 33.4125 175.6875 33.625 C178.90959519 35.54084039 180.64504586 38.08657415 183 41 C147.41132085 47.89882127 107.60818902 51.78029477 72 43 C71.1961084 42.80212891 70.3922168 42.60425781 69.56396484 42.40039062 C53.83877873 38.38710753 39.4940057 31.9960038 26 23 C26 22.34 26 21.68 26 21 C25.17628906 20.88398437 25.17628906 20.88398437 24.3359375 20.765625 C21.15156121 19.72191638 19.17760702 17.90934823 16.625 15.75 C15.66207031 14.93917969 14.69914062 14.12835937 13.70703125 13.29296875 C12.81371094 12.53628906 11.92039062 11.77960938 11 11 C9.7717228 10.01971781 8.54278153 9.04026552 7.3125 8.0625 C6.549375 7.381875 5.78625 6.70125 5 6 C5 5.34 5 4.68 5 4 C4.360625 3.71125 3.72125 3.4225 3.0625 3.125 C1 2 1 2 0 0 Z " fill="#353535" transform="translate(1240,1369)"/>
<path d="M0 0 C6.03673443 0.69090949 11.97143233 1.66590329 17.9375 2.8125 C19.31131836 3.0753479 19.31131836 3.0753479 20.71289062 3.34350586 C28.54796309 4.86661459 36.30567124 6.64218915 44.05859375 8.53417969 C46.00426732 9.0010239 47.95364289 9.44594131 49.90625 9.8828125 C51.0921875 10.14835937 52.278125 10.41390625 53.5 10.6875 C54.5415625 10.91824219 55.583125 11.14898438 56.65625 11.38671875 C59 12 59 12 60 13 C62.11364716 13.48105162 64.22842313 13.95759543 66.34814453 14.41113281 C70.9150951 15.42526325 75.42253151 16.65304461 79.9375 17.875 C80.86240234 18.11863281 81.78730469 18.36226562 82.74023438 18.61328125 C87.24212932 19.83103279 91.56627349 21.16897988 95.87109375 22.96875 C101.80681285 25.42317248 107.91043884 27.03439178 114.125 28.625 C115.31697998 28.93058838 116.50895996 29.23617676 117.73706055 29.55102539 C134.5747861 33.75788395 151.3108447 36.1958786 168.35546875 31.65625 C171 31 171 31 174 31 C174 31.66 174 32.32 174 33 C174.99 33.33 175.98 33.66 177 34 C177 34.66 177 35.32 177 36 C177.66 36 178.32 36 179 36 C179 36.66 179 37.32 179 38 C180.32 38.66 181.64 39.32 183 40 C158.36344108 55.04126755 101.38103049 49.93869942 74.41601562 43.60742188 C63.92068542 40.96874144 53.86809339 37.46446156 44 33 C42.64455078 32.42765625 42.64455078 32.42765625 41.26171875 31.84375 C30.8677535 27.12836881 21.96506423 19.97492925 13 13 C12.3719043 12.51289551 11.74380859 12.02579102 11.09667969 11.52392578 C9.68968979 10.39924053 8.33758209 9.20640443 7 8 C7 7.34 7 6.68 7 6 C6.34 6 5.68 6 5 6 C5 5.34 5 4.68 5 4 C4.360625 3.71125 3.72125 3.4225 3.0625 3.125 C1 2 1 2 0 0 Z " fill="#323232" transform="translate(1240,2869)"/>
<path d="M0 0 C1.05098877 0.00008057 2.10197754 0.00016113 3.18481445 0.00024414 C13.7789807 0.07689069 24.18144446 0.98425494 34.5625 3.1875 C35.30281734 19.16601582 35.30281734 19.16601582 30.5625 25.1875 C29.82 26.21875 29.0775 27.25 28.3125 28.3125 C25.11309058 31.65733712 21.75617789 34.20471506 17.5625 36.1875 C16.5725 36.1875 15.5825 36.1875 14.5625 36.1875 C14.5625 36.8475 14.5625 37.5075 14.5625 38.1875 C-2.85849516 45.22290189 -20.81284609 40.13800303 -37.4453125 33.46875 C-40.20417684 32.28740861 -42.91358518 31.03565566 -45.625 29.75 C-50.55794835 27.45814347 -55.59895987 25.66454933 -60.75 23.9375 C-61.51530029 23.67912354 -62.28060059 23.42074707 -63.0690918 23.15454102 C-67.17605152 21.80622178 -71.13574699 20.76197894 -75.4375 20.1875 C-74.4375 18.1875 -74.4375 18.1875 -71.83203125 17.1796875 C-70.64996094 16.81101562 -69.46789062 16.44234375 -68.25 16.0625 C-63.51359479 14.56082642 -58.82709283 12.98298579 -54.1796875 11.22265625 C-36.30501568 4.45485368 -19.20207657 -0.0137803 0 0 Z " fill="#363636" transform="translate(571.4375,1245.8125)"/>
<path d="M0 0 C2.02506751 6.07520252 2.00840845 12.72246411 -0.875 18.5 C-2.15782986 20.74257664 -3.56469461 22.84704191 -5 25 C-5.66 25 -6.32 25 -7 25 C-7.495 26.485 -7.495 26.485 -8 28 C-10.5625 29.1875 -10.5625 29.1875 -13 30 C-13 30.66 -13 31.32 -13 32 C-30.72109957 39.91793811 -45.77554014 39.43153807 -63.9453125 32.94921875 C-66.31820528 32.00949516 -68.65763025 31.012804 -71 30 C-73.65821564 28.97593332 -76.32861456 27.98940202 -79 27 C-79 26.34 -79 25.68 -79 25 C-79.76699219 24.90589844 -80.53398438 24.81179687 -81.32421875 24.71484375 C-86.30312495 23.74657613 -91.00726195 22.16860748 -95.8125 20.5625 C-96.77865234 20.24990234 -97.74480469 19.93730469 -98.74023438 19.61523438 C-99.65740234 19.31037109 -100.57457031 19.00550781 -101.51953125 18.69140625 C-102.35589111 18.41498291 -103.19225098 18.13855957 -104.05395508 17.85375977 C-106 17 -106 17 -107 15 C-73.83326019 2.41677995 -73.83326019 2.41677995 -58 -1 C-56.41832031 -1.36351563 -56.41832031 -1.36351563 -54.8046875 -1.734375 C-37.11568433 -5.15209363 -17.54500262 -3.66759942 0 0 Z " fill="#323232" transform="translate(605,2749)"/>
<path d="M0 0 C32.01 0 64.02 0 97 0 C96.01 3.3 95.02 6.6 94 10 C93.07955575 13.18242897 93.07955575 13.18242897 92.16210938 16.36572266 C84.49572573 42.85470132 84.49572573 42.85470132 76 48 C63.45187127 50.09135479 52.96520861 44.8411259 42.76953125 38.05859375 C34.03982651 31.56980052 26.57109332 23.57957265 18.94799805 15.86352539 C14.90508769 11.80817009 10.80266499 8.14619026 6 5 C5.401875 4.60425781 4.80375 4.20851563 4.1875 3.80078125 C3.630625 3.43339844 3.07375 3.06601562 2.5 2.6875 C1.675 2.130625 0.85 1.57375 0 1 C0 0.67 0 0.34 0 0 Z " fill="#141414" transform="translate(340,0)"/>
<path d="M0 0 C0.99 0.33 1.98 0.66 3 1 C4.3515625 3.94921875 4.3515625 3.94921875 5.625 7.6875 C6.05039062 8.90824219 6.47578125 10.12898438 6.9140625 11.38671875 C9.77504327 20.90616914 10.8050511 31.00024962 6.12890625 40.04296875 C5.75636719 40.68878906 5.38382812 41.33460937 5 42 C4.401875 43.051875 3.80375 44.10375 3.1875 45.1875 C-1.31846759 50.9808869 -6.13600394 54.47853206 -13 57 C-12.57422313 49.53213793 -10.98986531 42.90896279 -8.6875 35.8125 C-8.05162449 33.78570787 -7.41751017 31.75836236 -6.78515625 29.73046875 C-6.47852051 28.75255371 -6.17188477 27.77463867 -5.85595703 26.76708984 C-3.13018448 17.95536535 -0.64839083 9.23956934 0 0 Z " fill="#353535" transform="translate(373,1079)"/>
<path d="M0 0 C0.99 0 1.98 0 3 0 C3.81974263 2.03876949 4.6304807 4.08116075 5.4375 6.125 C6.11619141 7.83042969 6.11619141 7.83042969 6.80859375 9.5703125 C10.48500527 20.15355614 9.83777158 29.94768335 5 40 C1.41111494 46.31600137 -3.49950721 50.73118077 -10 54 C-10.99 54 -11.98 54 -13 54 C-11.45536115 44.22406201 -9.24344892 34.48400727 -6.00390625 25.12109375 C-4.70734069 21.090137 -3.82502025 17.01226169 -2.9375 12.875 C-2.59287776 11.28896904 -2.24783995 9.70302831 -1.90234375 8.1171875 C-1.75273193 7.42222168 -1.60312012 6.72725586 -1.44897461 6.01123047 C-0.99957294 3.99808695 -0.50881908 1.9988721 0 0 Z " fill="#323232" transform="translate(373,2581)"/>
<path d="M0 0 C0 0.33 0 0.66 0 1 C-24.09 1 -48.18 1 -73 1 C-69.05223866 -0.97388067 -65.53173264 -1.81041127 -61.25 -2.5625 C-60.57195312 -2.68818359 -59.89390625 -2.81386719 -59.1953125 -2.94335938 C-40.28153914 -6.37732393 -18.03210742 -7.81051734 0 0 Z " fill="#020202" transform="translate(1445,3199)"/>
<path d="M0 0 C3.3 0 6.6 0 10 0 C9.34 1.98 8.68 3.96 8 6 C7.34 6 6.68 6 6 6 C5.7525 6.763125 5.505 7.52625 5.25 8.3125 C4 11 4 11 0 14 C0 9.38 0 4.76 0 0 Z " fill="#141414" transform="translate(0,0)"/>
<path d="M0 0 C3.3 0 6.6 0 10 0 C8.43006215 5.02380113 5.39884258 9.0469983 2 13 C1.01 13.495 1.01 13.495 0 14 C0 9.38 0 4.76 0 0 Z " fill="#0D0D0D" transform="translate(0,3000)"/>
<path d="M0 0 C-1.33363972 4.00091915 -3.803754 5.33646167 -7 8 C-7.33 8.99 -7.66 9.98 -8 11 C-9.66279327 12.0064275 -11.32983484 13.00585407 -13 14 C-14.65568193 15.95133941 -15.85853702 17.71707404 -17 20 C-17.99 20.33 -18.98 20.66 -20 21 C-21.66710346 22.49985609 -21.66710346 22.49985609 -23 24 C-23 21 -23 21 -21.10400391 18.73168945 C-20.23694824 17.86761475 -19.36989258 17.00354004 -18.4765625 16.11328125 C-18.0151889 15.65140915 -17.55381531 15.18953705 -17.07846069 14.71366882 C-16.10179295 13.73934115 -15.12143141 12.76870424 -14.13769531 11.80151367 C-12.62904553 10.31648219 -11.1341798 8.81855547 -9.640625 7.31835938 C-2.2790462 0 -2.2790462 0 0 0 Z " fill="#2E2E2E" transform="translate(976,837)"/>
<path d="M0 0 C4.95 0 9.9 0 15 0 C14.67 0.66 14.34 1.32 14 2 C8.96109772 3.0283474 4.11310018 3.08970351 -1 3 C-0.67 2.01 -0.34 1.02 0 0 Z " fill="#212121" transform="translate(1361,2475)"/>
<path d="M0 0 C0.66 0 1.32 0 2 0 C2 0.99 2 1.98 2 3 C-0.5 4.6875 -0.5 4.6875 -3 6 C-2 4 -1 2 0 0 Z M-5 6 C-4.34 6 -3.68 6 -3 6 C-3.33 7.32 -3.66 8.64 -4 10 C-4.66 10 -5.32 10 -6 10 C-6 10.66 -6 11.32 -6 12 C-6.66 12 -7.32 12 -8 12 C-8.66 13.32 -9.32 14.64 -10 16 C-10.33 15.34 -10.66 14.68 -11 14 C-10.04956626 12.66102417 -9.08940853 11.32894573 -8.125 10 C-7.59132813 9.2575 -7.05765625 8.515 -6.5078125 7.75 C-6.01023437 7.1725 -5.51265625 6.595 -5 6 Z " fill="#2F2F2F" transform="translate(947,865)"/>
<path d="M0 0 C6.15234375 0.5859375 6.15234375 0.5859375 8 1 C8.33 1.66 8.66 2.32 9 3 C5.7 3.66 2.4 4.32 -1 5 C-1.33 4.01 -1.66 3.02 -2 2 C-1.34 2 -0.68 2 0 2 C0 1.34 0 0.68 0 0 Z " fill="#383838" transform="translate(708,31)"/>
<path d="M0 0 C6.75 0.75 6.75 0.75 9 3 C5.7 3.66 2.4 4.32 -1 5 C-0.67 3.35 -0.34 1.7 0 0 Z " fill="#313131" transform="translate(708,3031)"/>
<path d="M0 0 C0.33 0.66 0.66 1.32 1 2 C0.67 2.66 0.34 3.32 0 4 C-0.66 4 -1.32 4 -2 4 C-2.268125 4.61875 -2.53625 5.2375 -2.8125 5.875 C-4 8 -4 8 -7 10 C-5.33248852 6.05860922 -2.77289351 3.2107188 0 0 Z M-9 10 C-8.34 10 -7.68 10 -7 10 C-8.36983503 13.16115776 -8.9890638 13.9927092 -12 16 C-10.125 11.125 -10.125 11.125 -9 10 Z " fill="#2B2B2B" transform="translate(951,2361)"/>
<path d="M0 0 C1.17447815 3.52343445 0.54033401 4.8580489 -0.96484375 8.1484375 C-2.62310181 11.11452927 -4.72662565 13.48085545 -7 16 C-7 12.61345444 -6.30381533 11.43977599 -4.625 8.5625 C-2.99354282 5.7432275 -1.42758517 2.92855089 0 0 Z " fill="#2A2A2A" transform="translate(893,1926)"/>
<path d="M0 0 C0.33 0.99 0.66 1.98 1 3 C-0.109375 4.97265625 -0.109375 4.97265625 -1.75 7.0625 C-2.28109375 7.75472656 -2.8121875 8.44695313 -3.359375 9.16015625 C-5 11 -5 11 -8 13 C-6.53181332 9.89257577 -4.79975 7.09528261 -2.875 4.25 C-2.33617187 3.45078125 -1.79734375 2.6515625 -1.2421875 1.828125 C-0.62730469 0.92320312 -0.62730469 0.92320312 0 0 Z " fill="#2C2C2C" transform="translate(914,912)"/>
<path d="M0 0 C1.258125 -0.04125 2.51625 -0.0825 3.8125 -0.125 C4.52019531 -0.14820313 5.22789062 -0.17140625 5.95703125 -0.1953125 C8 0 8 0 11 2 C3.57142857 3.28571429 3.57142857 3.28571429 0 2 C0 1.34 0 0.68 0 0 Z " fill="#333333" transform="translate(536,1483)"/>
<path d="M0 0 C0.66 0.33 1.32 0.66 2 1 C1.01 2.485 1.01 2.485 0 4 C0 4.99 0 5.98 0 7 C-1.65 7 -3.3 7 -5 7 C-3.70700306 4.11562221 -2.34058637 2.12780579 0 0 Z " fill="#090909" transform="translate(688,48)"/>
<path d="M0 0 C-1.3125 1.5 -1.3125 1.5 -3 3 C-3.99 3 -4.98 3 -6 3 C-6 2.34 -6 1.68 -6 1 C-7.32 0.67 -8.64 0.34 -10 0 C-6.30581799 -1.231394 -3.7943739 -0.64432764 0 0 Z " fill="#333333" transform="translate(973,1836)"/>
<path d="M0 0 C-0.33 0.66 -0.66 1.32 -1 2 C-2.65 2 -4.3 2 -6 2 C-6.33 2.66 -6.66 3.32 -7 4 C-9.475 3.01 -9.475 3.01 -12 2 C-8.09971775 -0.60018816 -4.52565431 -0.15085514 0 0 Z " fill="#363636" transform="translate(120,1483)"/>
<path d="M0 0 C-0.66 1.65 -1.32 3.3 -2 5 C-2.99 5 -3.98 5 -5 5 C-5 4.01 -5 3.02 -5 2 C-5.66 1.67 -6.32 1.34 -7 1 C-4.53721199 -0.231394 -2.7204945 -0.07159196 0 0 Z " fill="#050505" transform="translate(781,986)"/>
<path d="M0 0 C-0.33 0.99 -0.66 1.98 -1 3 C-3.31 2.67 -5.62 2.34 -8 2 C-5.14066998 -0.85933002 -3.8625627 -1.2875209 0 0 Z " fill="#323232" transform="translate(864,50)"/>
<path d="M0 0 C3.125 0.375 3.125 0.375 6 1 C6 1.66 6 2.32 6 3 C6.66 3.33 7.32 3.66 8 4 C4.7 3.34 1.4 2.68 -2 2 C-1.34 1.34 -0.68 0.68 0 0 Z " fill="#2C2C2C" transform="translate(858,3050)"/>
<path d="M0 0 C1.98 0 3.96 0 6 0 C4.71937515 1.7074998 3.38232443 3.37373596 2 5 C1.34 5 0.68 5 0 5 C-0.33 4.01 -0.66 3.02 -1 2 C-0.67 1.34 -0.34 0.68 0 0 Z " fill="#353535" transform="translate(1225,1480)"/>
<path d="M0 0 C2.31 0.33 4.62 0.66 7 1 C6.67 1.99 6.34 2.98 6 4 C4.68 4 3.36 4 2 4 C1.34 2.68 0.68 1.36 0 0 Z " fill="#333333" transform="translate(1150,1427)"/>
<path d="M0 0 C0.99 0.33 1.98 0.66 3 1 C2.67 1.66 2.34 2.32 2 3 C1.34 3 0.68 3 0 3 C0 3.99 0 4.98 0 6 C-0.66 6 -1.32 6 -2 6 C-2.33 6.66 -2.66 7.32 -3 8 C-2.37240135 5.07120629 -1.41377341 2.63904371 0 0 Z " fill="#353535" transform="translate(13,1496)"/>
</svg>
